<?xml version="1.0" encoding="utf-8"?>
<!-- Generator: Adobe Illustrator 16.0.0, SVG Export Plug-In . SVG Version: 6.00 Build 0)  -->
<!DOCTYPE svg PUBLIC "-//W3C//DTD SVG 1.1//EN" "http://www.w3.org/Graphics/SVG/1.1/DTD/svg11.dtd">
<svg version="1.1" id="Layer_1" xmlns="http://www.w3.org/2000/svg" xmlns:xlink="http://www.w3.org/1999/xlink" x="0px" y="0px"
	 width="1199.906px" height="354.331px" viewBox="0 0 1199.906 354.331" enable-background="new 0 0 1199.906 354.331"
	 xml:space="preserve">
<g>
	<path fill-rule="evenodd" clip-rule="evenodd" fill="#004D86" d="M753.392,344.764c-1.369-0.051-2.74-0.146-4.111-0.146
		c-133.252-0.007-266.506-0.007-399.76,0.001c-1.371,0-2.741,0.095-4.111,0.146c-1.829-0.051-3.659-0.146-5.488-0.146
		c-108.617-0.008-217.233-0.03-325.849,0.084c-4.063,0.004-5.426-0.847-5.246-5.136c0.366-8.696,0.104-8.707,8.907-8.707
		c99.756,0,199.511,0.001,299.268-0.006c1.829,0,3.659-0.096,5.488-0.147c1.371,0.052,2.741,0.146,4.111,0.147
		c134.477,0.006,268.952,0.006,403.428,0c1.371,0,2.74-0.096,4.109-0.147c1.984,0.052,3.967,0.147,5.949,0.147
		c148.039,0.007,296.078,0.028,444.117-0.1c4.494-0.005,5.98,0.865,5.719,5.611c-0.457,8.228-0.125,8.246-8.465,8.246
		c-140.859,0-281.719-0.001-422.578,0.007C757.052,344.617,755.222,344.713,753.392,344.764z"/>
	<path fill-rule="evenodd" clip-rule="evenodd" fill="#004D87" d="M1054.281,130.966c-0.443,3.269-0.865,6.539-1.336,9.803
		c-1.266,8.799-6.277,14.581-14.422,17.819c-5.73,0.356-11.445,1.356-17.199,0.177c-10.936-2.244-15.281-7.204-16.869-19.362
		c-0.689-0.906-0.811-2.1-1.514-2.999c-0.32-2.507-0.641-5.014-0.959-7.521c-0.1-4.194-0.199-8.389-0.297-12.583
		c-0.625-3.172-0.26-6.377-0.266-9.563c-0.039-22.402,0.045-44.805-0.094-67.206c-0.02-3.298,0.641-4.71,4.24-4.41
		c3.936,0.328,7.92,0.033,11.881,0.105c0.939,0.016,2.223-0.581,2.686,0.938c-0.113,0.592-0.33,1.185-0.328,1.775
		c0.143,30.972-0.441,61.947,0.438,92.914c0.078,2.724,0.389,5.528,1.168,8.122c1.018,3.388,3.664,4.816,7.268,4.907
		c3.484,0.088,5.477-1.434,6.311-4.668c0.379-1.469,0.607-2.977,0.902-4.467c1.026-2.391,0.822-3.325,1.561-5.716
		c0.092-29.596,0.254-59.191,0.186-88.788c-0.008-3.719,0.801-5.237,4.707-4.815c3.016,0.325,6.109,0.25,9.141,0.012
		c2.873-0.227,3.564,0.817,3.547,3.604c-0.17,26.851-0.199,53.7-0.258,80.55c-0.002,1.208,0.111,2.416,0.172,3.622
		C1054.025,125.739,1055.041,128.429,1054.281,130.966z"/>
	<path fill-rule="evenodd" clip-rule="evenodd" fill="#004D87" d="M739.527,107.388c0,15.27-0.133,30.54,0.094,45.807
		c0.055,3.702-1.049,4.751-4.578,4.451c-3.488-0.296-7.025-0.16-10.533-0.033c-2.236,0.082-3.207-0.446-3.203-3.002
		c0.082-38.649,0.076-77.3,0.012-115.949c-0.004-2.341,0.598-3.471,3.039-3.168c0.301,0.037,0.611-0.005,0.916,0.001
		c4.561,0.106,10.518-1.487,13.299,0.792c2.924,2.395,0.854,8.587,0.912,13.111c0.133,10.382,0.043,20.765,0.043,32.333
		c1.662-3.364,3.072-5.645,3.961-8.113c3.482-9.672,6.754-19.419,10.205-29.102c0.949-2.657,2.318-5.162,3.373-7.784
		c0.543-1.346,1.605-1.22,2.637-1.226c5.033-0.024,10.068-0.011,15.199-0.011c-4.002,11.345-7.338,22.715-12.051,33.481
		c-3.131,7.148-4.201,15.045-8.457,21.719c-1.141,1.788-1.076,4.023,0.029,5.673c2.609,3.896,3.064,8.463,4.477,12.725
		c4.93,14.883,10.424,29.581,14.684,44.687c0.305,1.077,1.096,2.016,2.074,3.754c-5.984,0-11.494,0.005-17.004-0.006
		c-0.873-0.001-1.439-0.462-1.551-1.34c-0.328-2.598-2.246-4.591-2.83-7.009c-2.387-9.879-6.906-19.071-9.213-28.953
		C743.994,115.664,741.4,111.761,739.527,107.388z"/>
	<path fill-rule="evenodd" clip-rule="evenodd" fill="#004D86" d="M878.248,63.982c-0.408-3.944-0.654-7.914-1.27-11.826
		c-0.572-3.634-2.439-6.34-6.605-6.226c-3.873,0.105-6.855,1.74-7.574,5.851c-1.402,8.014-1.781,16.079-0.34,24.14
		c1.045,5.849,5.852,8.615,10.123,11.604c3.959,2.771,8.404,4.778,12.277,7.779c6.262,4.849,10.434,10.861,11.279,18.806
		c0.938,8.829,0.689,17.652-0.301,26.497c-1.115,9.974-8.82,16.892-18.65,17.95c-4.719,0.508-9.338,0.834-14.111,0.187
		c-9.836-1.335-14.496-7.931-17.174-16.406c-1.99-6.299-1.736-12.978-2.232-19.516c-0.143-1.859,0.664-2.428,2.377-2.409
		c4.43,0.048,8.859,0.089,13.287-0.012c2.203-0.051,2.383,1.174,2.455,2.89c0.211,5.028,0.381,10.058,1.316,15.034
		c0.754,4.016,3.123,5.543,7.051,5.544c3.867,0.001,6.602-1.312,7.252-5.377c1.256-7.87,1.518-15.75,0.076-23.648
		c-1.062-5.827-5.537-8.883-9.75-12.052c-2.631-1.98-5.75-3.298-8.488-5.152c-8.406-5.699-14.863-12.58-15.473-23.594
		c-0.383-6.902-0.246-13.737,0.473-20.574c1.004-9.532,7.521-17.414,17.775-18.963c6.107-0.923,12.168-1.121,18.16,0.409
		c7.846,2.002,11.975,7.878,14.168,15.066c1.551,5.088,1.861,10.5,1.967,15.856c-4.965,1.151-9.998,0.21-14.99,0.495
		C879.64,66.431,879,65.124,878.248,63.982z"/>
	<path fill-rule="evenodd" clip-rule="evenodd" fill="#014D87" d="M662.541,260.978c-0.629,1.854-1.285,3.699-1.879,5.564
		c-0.535,1.676-1.238,3.215-3.277,3.288c-2.045,0.072-2.965-1.26-3.326-3.081c-1.119-5.634-3.605-10.803-5.805-16.785
		c-2.549,5.596-4.973,10.811-7.293,16.069c-0.803,1.822-1.199,3.899-3.896,3.645c-2.445-0.23-2.447-2.277-3.066-3.951
		c-3.584-9.687-6.395-19.655-10.633-29.112c-0.523-1.168-1.492-3.096,0.795-3.794c1.838-0.561,3.092,0.046,3.77,2.144
		c2.312,7.155,5.641,13.955,7.385,21.324c0.424,1.79,0.502,4.088,2.957,4.621c2.564-6,5.143-12.032,7.723-18.065
		c0.625-2.231-0.932-4.139-0.934-6.276c-0.764-1.28-0.922-2.521,0.238-3.678c2.5-0.986,2.959,0.645,3.744,2.529
		c3.199,7.673,5.205,15.693,7.32,23.688c0.07,0.267,0.295,0.49,0.473,0.774c1.58-0.125,1.82-1.424,2.072-2.551
		c1.648-7.373,4.941-14.189,7.146-21.367c0.715-2.322,1.584-4.25,4.305-3.151c2.941,1.187,1.148,3.648,0.4,5.026
		C666.796,245.142,666.21,253.606,662.541,260.978z"/>
	<path fill-rule="evenodd" clip-rule="evenodd" fill="#044F88" d="M1144.753,232.11c1.299,0.924,2.559,1.822,1.148,3.642
		c-1.4,1.81-2.344,4.315-4.154,5.4c-4.361,2.611-3.393,6.042-1.332,8.831c3.736,5.057,3.889,11.697,7.945,16.541
		c0.668,0.798,0.715,2.352-1.055,2.871c-1.783,0.523-2.84,0.044-3.615-1.694c-2.324-5.222-5.418-10.095-7.082-15.617
		c-0.912-3.025-1.889-3.239-4.062-0.652c-2.707,3.222-4.32,6.52-3.711,10.788c0.191,1.344,0.299,2.84-0.102,4.094
		c-0.469,1.469-0.955,3.51-3.146,3.264c-2.158-0.243-1.789-2.156-1.793-3.619c-0.029-9.93-0.02-19.86-0.012-29.79
		c0.002-1.672-0.215-3.874,2.215-3.621c1.869,0.194,2.945,1.811,2.895,3.972c-0.088,3.727-0.025,7.456-0.025,11.7
		c6.207-5.232,9.348-12.338,15.896-16.093L1144.753,232.11z"/>
	<path fill-rule="evenodd" clip-rule="evenodd" fill="#024E87" d="M1163.353,239.18c3.977-8.396,15.879-9.824,22.756-2.732
		c0.793,0.908,0.746,1.845,0.092,2.8c-1.311,1.49-2.443,0.664-3.455-0.346c-2.482-2.48-5.51-2.833-8.791-2.458
		c-2.641,0.302-4.719,1.333-5.217,4.164c-0.529,3.002,1.572,4.536,3.846,5.459c5.725,2.323,11.4,4.674,16.17,8.734
		c1.4,4.226,1.791,8.134-1.953,11.658c-5.064,4.769-10.602,4.58-16.484,2.218c-1.383-0.556-2.707-1.365-3.898-2.27
		c-1.369-1.04-2.697-2.477-1.238-4.199c1.434-1.694,3.107-0.903,4.285,0.523c2.404,2.909,5.555,3.522,9.035,3.179
		c2.98-0.293,5.293-1.575,5.836-4.809c0.529-3.157-1.008-5.143-3.795-6.479c-3.818-1.832-7.488-3.99-11.365-5.677
		C1164.771,247.031,1163.255,243.649,1163.353,239.18z"/>
	<path fill-rule="evenodd" clip-rule="evenodd" fill="#055088" d="M928.644,250.885c0-5.026,0.082-10.056-0.035-15.08
		c-0.061-2.556,0.961-3.595,3.482-3.556c4.873,0.075,9.75-0.006,14.623,0.053c1.346,0.017,2.957,0.035,2.955,2.008
		c0,1.852-1.369,2.127-2.857,2.122c-1.676-0.004-3.359-0.091-5.025,0.024c-2.537,0.176-6.467-1.188-7.303,0.635
		c-1.275,2.781-0.541,6.504-0.57,9.827c-0.018,1.903,1.514,1.532,2.654,1.552c2.59,0.045,5.18,0.036,7.768,0.016
		c1.562-0.012,2.91,0.593,2.969,2.173c0.059,1.641-1.285,2.245-2.857,2.212c-0.607-0.014-1.217,0.049-1.826,0.064
		c-8.754,0.221-8.752,0.221-8.756,9.193c-0.002,1.675,0.033,3.354-0.051,5.025c-0.076,1.564-0.914,2.638-2.537,2.665
		c-1.889,0.033-2.719-1.094-2.631-2.938c0.008-0.152-0.002-0.304-0.002-0.456C928.644,261.244,928.644,256.064,928.644,250.885z"/>
	<path fill-rule="evenodd" clip-rule="evenodd" fill="#034E88" d="M775.24,250.821c-0.002-4.268-0.197-8.548,0.086-12.798
		c0.129-1.907-1.65-5.516,1.98-5.375c3.275,0.126,1.795,3.642,1.84,5.626c0.18,7.922,0.215,15.854,0.004,23.775
		c-0.082,3.057,0.881,3.966,3.854,3.77c3.643-0.241,7.312-0.038,10.971-0.032c1.402,0.003,2.445,0.553,2.424,2.068
		c-0.016,1.301-1.012,1.799-2.195,1.811c-5.631,0.056-11.262,0.162-16.891,0.081c-2.109-0.03-2.078-1.804-2.076-3.377
		C775.246,261.187,775.24,256.005,775.24,250.821z"/>
	<path fill-rule="evenodd" clip-rule="evenodd" fill="#034F88" d="M541.187,251.275c0,4.882,0.008,9.763-0.006,14.645
		c-0.004,1.872,0.08,3.903-2.668,3.789c-2.365-0.097-2.42-1.863-2.414-3.626c0.012-3.355-0.127-6.717,0.045-10.064
		c0.121-2.323-0.496-3.305-3.008-3.128c-4.072,0.285-9.264-1.187-11.938,0.815c-2.561,1.916-0.725,7.397-0.752,11.302
		c-0.016,2.471-0.752,4.547-3.152,4.606c-2.982,0.076-2.246-2.69-2.256-4.532c-0.051-9.456-0.041-18.914-0.008-28.371
		c0.004-1.742-0.525-4.266,2.156-4.172c2.391,0.084,3.24,1.997,3.271,4.535c0.047,3.73-1.805,9.204,0.855,10.777
		c3.184,1.883,8.264,0.509,12.52,0.656c1.857,0.064,2.332-0.767,2.289-2.451c-0.082-3.201-0.029-6.406-0.018-9.609
		c0.006-1.829-0.27-3.999,2.404-4.071c3.014-0.08,2.664,2.296,2.672,4.257C541.201,241.514,541.187,246.396,541.187,251.275z"/>
	<path fill-rule="evenodd" clip-rule="evenodd" fill="#024E87" d="M577.314,251.988c-3.141,1.835-6.588,0.92-9.855,0.843
		c-3.111-0.074-3.773,1.004-3.76,3.904c0.043,9.025-0.074,9.024,9.061,9.027c1.984,0.001,3.967-0.011,5.949,0.039
		c1.186,0.029,2.082,0.594,2.197,1.848c0.123,1.318-0.801,2.086-1.926,2.101c-5.789,0.07-11.582,0.09-17.369-0.044
		c-1.9-0.044-1.805-1.771-1.809-3.136c-0.016-10.375,0.027-20.749-0.033-31.123c-0.016-2.447,1.195-3.187,3.381-3.172
		c4.881,0.033,9.764-0.012,14.645,0.024c1.375,0.01,3.02,0.039,3.133,1.88c0.133,2.17-1.586,2.242-3.176,2.246
		c-3.662,0.006-7.33,0.143-10.98-0.044c-2.486-0.126-3.006,0.846-3.062,3.164c-0.221,8.899-0.309,8.894,8.721,8.95
		c1.66,0.011,3.373-0.26,4.863,0.801C578.121,250.188,578.111,251.085,577.314,251.988z"/>
	<path fill-rule="evenodd" clip-rule="evenodd" fill="#044F88" d="M483.988,252.315c-0.002-4.269-0.115-8.542,0.045-12.805
		c0.088-2.337-0.557-3.421-3.037-3.103c-1.199,0.154-2.436,0.023-3.656,0.025c-1.814,0.004-4.195-0.003-4.275-2.107
		c-0.074-1.97,2.357-1.993,3.949-2.016c6.25-0.087,12.502-0.039,18.752-0.04c1.602-0.001,3.35,0.152,3.365,2.172
		c0.018,2.164-1.846,1.934-3.373,2.001c-6.4,0.287-6.4,0.3-6.4,6.94c0,7.167,0.029,14.333-0.018,21.498
		c-0.014,2.018,0.709,4.837-2.504,4.884c-3.488,0.052-2.795-2.924-2.83-5.101C483.941,260.55,483.988,256.433,483.988,252.315z"/>
	<path fill-rule="evenodd" clip-rule="evenodd" fill="#004D87" d="M1100.783,96.73c0.002,18.932-0.068,37.863,0.07,56.794
		c0.021,3.08-0.572,4.506-3.945,4.098c-4.334-0.524-10.162,1.903-12.658-0.99c-2.143-2.485-0.701-8.133-0.703-12.382
		c-0.023-34.657,0.043-69.313-0.096-103.97c-0.014-3.651,0.646-5.335,4.654-4.855c2.859,0.343,5.812,0.277,8.688,0.011
		c3.225-0.298,4.09,0.834,4.064,4.043C1100.707,58.562,1100.783,77.646,1100.783,96.73z"/>
	<path fill-rule="evenodd" clip-rule="evenodd" fill="#004D86" d="M974.269,90.188c-0.455,6.268-0.404,12.534-0.002,18.802
		c-0.084,20.466-0.312,40.931-0.135,61.394c0.039,4.51-0.883,6.474-5.682,5.739c-3.721-0.569-8.674,1.606-10.982-0.846
		c-2.271-2.413-0.377-7.271-0.561-11.051c-0.051-1.066-0.1-2.153,0.041-3.205c0.32-2.401-0.709-2.729-2.873-2.432
		c-7.15,0.979-14.203,1.256-21.041-2.047c-5.779-2.793-8.039-8.132-9.721-13.454c-1.492-4.722-1.859-9.918-2.008-14.926
		c-0.633-21.381-1.053-42.769-0.131-64.153c0.146-3.348,0.523-6.687,0.793-10.029c1.574-9.588,6.188-18.384,18.393-19.625
		c6.324-0.643,12.43-0.567,18.496,1.106c7.861,2.168,10.805,8.769,12.77,15.585c1.371,4.755,1.369,9.906,1.98,14.88
		c0.621,6.445,0.086,12.905,0.279,19.356C973.933,86.922,973.605,88.596,974.269,90.188z M937.82,55.878
		c-1.645,26.23-1.373,52.461,0.027,78.69c0.707,0.887,0.797,2.098,1.553,2.959c0.332,2.148,0.893,4.195,2.879,5.45
		c4.773,3.019,11.594,0.264,12.889-5.258c0.449-1.918,0.732-3.897,0.867-5.864c1.494-21.944,0.77-43.911,0.484-65.87
		c-0.057-4.389-0.367-8.805-1.168-13.19c-0.863-4.732-3.568-6.781-8.107-6.904c-4.699-0.128-6.574,1.576-7.846,7.034
		C938.654,53.792,938.566,55.011,937.82,55.878z"/>
	<path fill-rule="evenodd" clip-rule="evenodd" fill="#004D86" d="M533.564,102.57c2.949,11.68,3.957,23.496,1.529,35.356
		c-2.42,11.824-9.367,19.1-21.535,19.557c-10.521,0.395-21.07,0.025-31.604,0.146c-2.34,0.026-2.727-0.895-2.725-2.948
		c0.049-38.783,0.061-77.565-0.021-116.347c-0.004-2.674,1.168-2.891,3.291-2.874c9.617,0.075,19.236,0.032,28.854,0.031
		c13.494,2.294,18.455,9.231,19.174,21.86c0.531,9.318,0.404,18.593-2.688,27.578c-1.92,5.577-1.85,5.566,1.531,10.782
		C530.826,97.96,531.636,100.606,533.564,102.57z M600.439,156.399c3.16-1.496,6.23-3.801,7.57-7.487
		c2.367-6.523,4.74-13,5.119-20.079c1.174-21.973,1.016-43.932,0.012-65.904c-0.311-6.793-2.691-12.954-5.092-19.13
		c-0.637-1.641-1.789-3.016-3.295-4.236c-7.668-6.204-16.406-6.17-25.529-5.104c-10.195,1.191-16.465,7.499-18.223,17.294
		c-0.459,2.549-0.793,5.12-1.184,7.68c-0.984,1.271-0.74,2.773-0.787,4.223c-0.252,2.284,0.625,4.696-0.783,6.847
		c-0.504,15.877-0.303,31.753,0.014,47.63c0.415,3.12,0.486,5.205,0.768,7.803c0.111,1.727,0.963,8.569,1.037,10.3
		c1.691,10.21,5.094,19.168,16.381,22.346C584.642,159.994,592.818,160.006,600.439,156.399z M692.882,56.379
		c-1.662-12.43-7.428-21.172-20.344-22.198c-10.83-0.861-21.395-0.813-28.166,10.155c-2.51,4.065-3.234,8.48-3.686,12.924
		c-2.365,23.294-1.223,46.646-0.654,69.976c0.137,5.611,0.631,11.324,2.469,16.692c2.59,7.561,7.342,12.942,15.664,14.579
		c3.795,0.746,7.584,0.969,11.373,0.717c13.943-0.931,19.137-5.56,22.336-18.854c3.477-14.462,2.209-29.446,2.715-44.467
		C693.941,82.891,694.648,69.583,692.882,56.379z M520.353,128.095c0.006-2.66,0.01-5.32,0.016-7.98
		c-0.787-2.414-0.812-3.75-1.512-5.747c-0.309-2.108-0.504-4.241-0.947-6.321c-1.582-7.428-2.791-8.358-10.514-8.374
		c-1.984-0.004-3.99,0.184-5.949-0.042c-3.119-0.359-4.215,0.616-4.139,3.946c0.227,9.919,0.084,19.845,0.08,29.769
		c-0.002,9.1-0.004,9.1,9.012,9.081c8.934-0.018,10.801-1.583,12.424-10.425C519.837,130.896,519.378,129.215,520.353,128.095z
		 M497.417,84.162c0.016,1.217-0.564,2.673,1.5,3.249c7.408,2.068,14.107-1.841,15.5-9.463c1.35-7.389,1.037-14.863,0.387-22.298
		c-0.133-1.507-0.895-2.947-1.816-4.417c-3.311-5.29-8.344-3.177-12.791-3.681c-2.191-0.249-2.898,0.628-2.85,2.815
		c0.127,5.63,0.043,11.265,0.043,16.897S497.353,78.53,497.417,84.162z M576.167,117.631c0.127,6.249-0.205,12.539,1.088,18.724
		c1.092,5.221,4.357,7.748,9.6,7.472c5.137-0.27,7.438-2.837,7.955-9.688c1.84-24.406,0.898-48.843,0.527-73.269
		c-0.049-3.17-0.781-6.349-1.393-9.486c-0.684-3.52-3.57-4.826-6.576-5.385c-3.137-0.584-5.906,0.244-7.938,3.229
		c-2.146,3.155-2.807,6.577-2.961,10.223c-0.502,11.752-0.873,23.507-0.34,35.272C576.13,102.358,576.011,109.997,576.167,117.631z
		 M676.378,72.185c0-3.562,0.002-7.126,0-10.688c-0.08-1.63,0.266-3.328-0.791-4.796c-0.18-1.051-0.311-2.114-0.545-3.152
		c-1.369-6.052-3.312-7.813-8.396-7.661c-4.973,0.149-7,1.727-7.836,7.648c-1.098,7.785-2.652,15.521-2.494,23.48
		c0.24,12.054,0.127,24.114,0.129,36.171c0.002,7.917,1.379,15.701,2.4,23.503c0.764,5.851,2.486,7.061,7.564,7.138
		c5.629,0.087,7.16-1.063,8.404-6.781c0.482-2.215,0.537-4.522,0.787-6.788c1.014-1.458,0.662-3.136,0.789-4.745
		c0.195-2.477-0.621-5.059,0.752-7.415c-0.002-9.143-0.002-18.285-0.004-27.428C675.478,84.564,676.812,78.338,676.378,72.185z"/>
	<path fill-rule="evenodd" clip-rule="evenodd" fill="#024E87" d="M991.912,250.636c0.002-4.871,0.059-9.742-0.02-14.612
		c-0.045-2.702,1.07-3.896,3.816-3.77c3.492,0.162,7.023-0.116,10.484,0.271c7.109,0.795,9.814,4.86,7.729,11.762
		c-0.678,2.247-0.639,3.716,0.836,5.652c3.689,4.847,4.221,9.97,0.49,15.238c-1.605,2.267-3.586,3.594-6.275,4.111
		c-4.225,0.813-8.49,0.494-12.738,0.672c-3.143,0.133-4.428-1.123-4.355-4.257C991.996,260.683,991.91,255.658,991.912,250.636z
		 M1000.859,265.9c9.369-0.31,11.834-3.25,11.57-8.052c-0.35-6.312-2.121-7.816-10.488-7.816c-5.592,0.001-5.592,0.001-5.592,8.249
		C997.722,260.546,993.039,266.159,1000.859,265.9z M1002.623,245.593c2.713-0.031,5.762,0.477,6.539-3.264
		c0.412-1.989,0.422-4.252-1.799-5.133c-3.438-1.362-7.074-1.011-10.645-0.305c-0.15,0.03-0.227,0.499-0.32,0.77
		c-1.73,4.943,0.273,7.935,5.314,7.933C1002.015,245.594,1002.32,245.597,1002.623,245.593z"/>
	<path fill-rule="evenodd" clip-rule="evenodd" fill="#034E87" d="M810.666,250.867c0-4.883,0.061-9.768-0.023-14.65
		c-0.051-2.909,1.133-4.137,4.107-3.979c5.02,0.265,10.086-0.431,15.068,0.54c6.105,1.19,8.578,4.034,8.826,10.308
		c0.201,5.029,0.205,10.07,0.146,15.104c-0.08,6.847-2.395,9.801-8.984,11.184c-5.418,1.137-10.951,0.456-16.434,0.505
		c-2.645,0.024-2.68-2.038-2.693-3.9C810.638,260.94,810.666,255.904,810.666,250.867z M834.802,251.936
		c0-2.437,0.137-4.882-0.029-7.306c-0.328-4.838-3.098-7.639-8.035-8.057c-2.725-0.229-5.486,0.01-8.215-0.178
		c-2.207-0.152-2.881,0.646-2.826,2.829c0.133,5.479,0.043,10.962,0.043,16.444c0,11.007,0,11.007,11.014,10.086
		c0.303-0.025,0.609-0.018,0.91-0.068c4.373-0.73,7.08-3.842,7.162-8.27c0.035-1.827,0.006-3.655,0.006-5.481
		C834.822,251.936,834.812,251.936,834.802,251.936z"/>
	<path fill-rule="evenodd" clip-rule="evenodd" fill="#044F88" d="M716.302,251.177c-0.486,3.038,0.521,6.582-1.057,10.21
		c-3.014,6.933-8.695,10.027-17.186,8.543c-7.033-1.229-11.32-5.612-10.75-13.179c0.354-4.693,0.113-9.437,0.072-14.156
		c-0.041-4.646,2.4-7.673,6.344-9.564c11.59-5.556,22.574,1.282,22.576,13.983C716.302,248.232,716.302,249.45,716.302,251.177z
		 M711.205,243.889c-0.102-5.647-2.711-7.858-9.24-7.879c-7.049-0.022-9.352,1.737-9.477,7.502c-0.105,4.88-0.09,9.765-0.006,14.646
		c0.102,5.94,2.301,7.731,9.252,7.749c6.268,0.015,9.344-2.51,9.469-7.829c0.053-2.287,0.008-4.577,0.008-6.865
		C711.21,248.771,711.248,246.33,711.205,243.889z"/>
	<path fill-rule="evenodd" clip-rule="evenodd" fill="#034E88" d="M910.941,250.963c0,1.676,0,3.35,0,5.024
		c-0.004,11.933-11.076,18.25-21.838,12.705c-4.342-2.236-6.207-5.546-6.273-10.139c-0.072-5.023-0.141-10.053,0.008-15.073
		c0.221-7.42,3.777-11.001,11.217-11.539c1.516-0.108,3.045-0.131,4.564-0.092c8.896,0.23,12.285,3.74,12.32,12.718
		C910.949,246.699,910.941,248.831,910.941,250.963z M906.603,242.759c-0.227-4.121-3.49-6.608-8.596-6.752
		c-6.783-0.191-9.531,1.284-9.898,5.998c-0.4,5.147-0.369,10.339-0.311,15.509c0.037,3.24,0.357,6.888,4.205,7.752
		c4.217,0.946,8.592,1.811,12.43-1.866c3.91-3.744,1.338-8.32,2.197-11.696C906.63,248.237,906.751,245.491,906.603,242.759z"/>
	<path fill-rule="evenodd" clip-rule="evenodd" fill="#014D87" d="M754.236,269.303c-5.119,0.426-4.674-4.895-7.254-7.116
		c-1.152-0.991-1.098-3.021-3.32-3.307c-4.41-0.568-5.322,0.073-5.365,4.591c-0.006,0.458,0.066,0.929-0.014,1.373
		c-0.338,1.865,0.98,4.769-2.545,4.77c-3.551,0.003-2.463-2.865-2.479-4.757c-0.084-9.468,0.094-18.94-0.111-28.405
		c-0.07-3.29,1.154-4.429,4.211-4.168c5.775,0.491,11.906-1.438,17.08,3.087c1.66,1.45,2.588,2.849,2.627,4.921
		c0.061,3.203,0.043,6.409,0.105,9.614c0.055,2.785-0.871,5.154-3.406,6.395c-3.242,1.587-2.742,3.588-1.221,6.05
		c0.795,1.285,1.32,2.735,1.967,4.111C755.031,267.469,755.125,268.434,754.236,269.303z M748.302,254.295
		c0.146-0.04,0.297-0.062,0.447-0.083c1.729-0.245,2.719-1.325,3.068-2.943c0.814-3.752,0.791-7.538,0.104-11.297
		c-0.258-1.405-1.158-2.489-2.629-2.885c-3.428-0.921-7.287-1.615-10.256-0.166c-2.027,0.989-0.502,4.752-0.793,7.256
		c-0.051,0.45-0.008,0.911-0.008,1.368C738.236,255.422,739.632,256.635,748.302,254.295z"/>
	<path fill-rule="evenodd" clip-rule="evenodd" fill="#044F88" d="M1078.083,250.632c0-2.438-0.037-4.874,0.008-7.311
		c0.119-6.516,2.381-9.516,8.602-10.998c3.58-0.854,7.283-0.865,10.859-0.006c5.902,1.417,8.207,4.012,8.555,10.151
		c0.309,5.465,0.354,10.978,0.021,16.438c-0.572,9.413-11.377,14.388-21.236,10.145c-4.602-1.981-6.775-5.307-6.805-10.195
		C1078.07,256.115,1078.083,253.373,1078.083,250.632z M1060.935,251.153c0-2.9,0.188-5.814-0.037-8.697
		c-0.52-6.657-2.848-9.218-9.389-10.363c-3.168-0.556-6.422-0.516-9.572,0.124c-6.256,1.27-8.803,4.405-8.902,10.817
		c-0.082,5.191,0.033,10.384-0.031,15.575c-0.061,4.971,2.152,8.235,6.715,10.301c11.127,5.035,21.279-1.173,21.299-13.175
		c0.002-1.527,0-3.055,0-4.582C1060.99,251.153,1060.962,251.153,1060.935,251.153z M1100.986,251.35
		c0-2.596,0.092-5.193-0.02-7.784c-0.242-5.715-2.27-7.473-8.506-7.552c-6.826-0.088-9.176,1.731-9.387,7.651
		c-0.168,4.727-0.123,9.466-0.02,14.196c0.127,5.847,2.252,7.878,8.111,8.039c7.744,0.214,9.764-1.735,9.836-9.513
		c0.016-1.679,0.002-3.358,0.002-5.038C1100.998,251.35,1100.992,251.35,1100.986,251.35z M1056.765,259.299
		c0.029-4.718,0.141-9.437,0.07-14.153c-0.092-6.144-3.188-9.13-9.273-9.145c-7.428-0.018-9.65,1.929-9.787,8.747
		c-0.082,4.108-0.037,8.221-0.01,12.33c0.025,3.674,0.627,7.131,4.723,8.463c4.885,1.587,9.912,0.159,12.588-3.377
		C1055.919,261.373,1055.949,260.104,1056.765,259.299z"/>
	<path fill-rule="evenodd" clip-rule="evenodd" fill="#004D87" d="M1130.214,35.647c12.029,0.135,24.1-1.202,36.07,0.955
		c6.158,1.109,9.969,4.711,12.676,10.465c3.701,7.868,3.939,16.147,4.096,24.404c0.373,19.685,0.787,39.376-0.469,59.063
		c-0.426,6.679-2.467,12.777-5.482,18.47c-3.498,6.604-10.113,8.377-17.029,8.521c-9.92,0.206-19.848,0.036-29.771,0.027
		c-0.898-1.061-0.535-2.337-0.537-3.519c-0.018-38.274-0.018-76.55-0.002-114.824C1129.765,38.015,1129.47,36.758,1130.214,35.647z
		 M1166.872,111.253c0.016-15.086,0.021-19.997,0.005-35.082c0-1.367-0.451-5.958-0.768-7.533c-0.213-3.191-0.268-6.403-0.67-9.57
		c-1.373-10.802-2.371-11.41-13.182-11.616c-3.812-0.074-4.047,1.462-4.037,4.504c0.094,28.057,0.029,56.116,0.076,84.174
		c0.014,7.165-1.105,6.236,6.277,6.28c8.018,0.048,9.621-1.352,10.551-9.196c0.449-3.777,0.67-7.583,0.992-11.376
		C1166.508,119.795,1166.87,112.619,1166.872,111.253z"/>
	<path fill-rule="evenodd" clip-rule="evenodd" fill="#004D86" d="M294.984,276.897c-4.585-0.524-9.171-1.474-13.75,0.033
		c-6.409,0.973-11.869,4.456-17.728,6.843c-15.685,6.389-31.595,5.764-47.589,1.93c-7.416-1.777-14.392-4.873-20.128-10.093
		c-1.963-1.785-3.375-0.316-4.167,0.651c-9.146,11.188-21.6,12.648-34.751,12.014c-13.311-0.641-26.214-3.854-39.193-6.526
		c-16.31-3.358-32.642-5.284-48.69,0.815c-7.042,2.676-13.994,5.972-17.677,13.344c-1.004,2.011-2.74,3.074-4.877,2.509
		c-2.326-0.614-2.616-2.845-2.609-4.845c0.029-8.386,3.57-15.487,8.335-22.106c0.788-1.095,1.62-2.156,2.744-3.649
		c-6.503-1.046-12.894-0.961-18.906-3.031c-12.617-4.344-21.803-12.074-25.37-25.429c-0.678-0.914-0.798-2.117-1.552-2.991
		c0.042-1.363-0.43-3.14,0.253-3.985c0.875-1.086,1.333-2.968,3.023-3.123c1.723-0.158,2.3,1.403,2.661,2.681
		c2.738,9.686,9.639,14.04,19.125,15.376c9.748,1.374,19.401,1.345,29.961-1.369c-10.834-1.188-19.993-4.311-28.391-9.709
		c-3.223-2.072-6.116-4.595-8.353-7.493c-6.521-8.452-3.374-18.578,6.945-23.396c0.834,2.513-0.396,4.816-0.87,7.096
		c-1.406,6.772,0.51,9.571,8.14,12.293c12.963,4.622,24.786,2.062,35.785-5.803c2.202-1.574,4.756-2.658,7.203-3.999
		c0.059-1.047-0.889-1.38-1.614-1.791c-7.857-4.452-14.44-10.177-19.53-17.782c-7.554-11.286-11.451-23.486-8.56-36.875
		c2.881-13.34,9.428-24.649,20.37-33.536c13.151-10.68,29.032-14.214,44.609-18.647c13.739-3.91,27.481-7.619,40.082-14.684
		c10.081-5.65,17.952-13.354,19.954-24.834c1.032-5.92-1.963-12.13-6.734-16.481c-12.333-11.244-26.858-12.727-42.641-9.709
		c-16.199,3.096-32.569,5.539-48.987,1.451c-10.142-2.526-19.477-6.57-25.684-15.763c-1.222-1.809-2.06-3.656-1.088-5.308
		c1.075-1.827,3.148-0.604,4.542,0.061c10.343,4.938,20.631,2.846,30.657-0.607c16.05-5.529,32.35-7.147,49.101-4.672
		c1.404,1.251,3.121,0.381,4.665,0.689c1.047-0.193,2.037-0.176,2.778,0.755c9.66,3.453,18.847,7.624,26.51,14.805
		c2.658,2.491,4.964,5.388,6.847,8.165c6.833,10.08,11.875,21.2,7.547,33.661c-3.116,8.974-9.517,15.861-17.555,21.044
		c-0.9,0.581-1.838,1.031-2.323,2.046c-11.447,9.535-25.7,12.261-39.457,16.056c-15.483,4.271-31.07,8.242-44.538,17.492
		c-14.55,9.995-20.439,23.961-18.759,41.479c1.215,12.666,7.161,22.349,17.923,30.679c-0.198-7.082,2.516-12.143,7.067-16.288
		c0.902-0.821,1.741-1.714,2.731-2.437c4.737-3.455,7.548-2.786,10.22,2.394c1.639,3.179,1.588,6.816,2.905,10.59
		c3.678-4.367,7.278-8.481,12.375-10.779c3.046-1.372,6.065-2.33,8.809,0.619c1.713,3.867-1.421,7.847,0.277,11.726
		c-0.035-3.845,0.216-7.68,0.12-11.524c0.133-5.842,1.682-11.258,6.029-15.29c6.831-6.335,9.978-13.842,9.249-23.209
		c-0.623-8.003,4.008-14.286,8.22-20.353c6.667-9.603,16.076-16.518,25.087-23.758c0.603-0.484,1.438-0.457,2.158-0.697
		c6.283-3.643,11.796-8.36,17.562-12.714c8.062-6.085,16.052-12.281,23.833-18.72c2.975-2.463,5.925-5.367,7.787-8.688
		c8.28-14.765,21.075-23.265,36.871-28.097c11.74-3.59,23.688-6.855,33.515-14.761c3.509-2.822,6.68-6.062,10.034-9.079
		c2.928-2.633,6.242-4.584,9.785-6.379c8.958-4.538,17.691,0.838,21.656,9.129c2.851,5.96,5.247,12.125,6.712,18.698
		c2.396,10.743,7.244,20.658,11.416,30.805c2.003,4.875,3.493,10.089,3.819,15.484c0.495,8.187-4.464,13.351-10.389,17.549
		c-4.536,3.215-9.733,5.426-14.851,7.737c-4.665,2.107-7.861,6.067-8.539,11.512c-0.472,3.786-0.506,7.689-1.486,11.338
		c-3.589,13.354-8.396,26.157-15.813,38.035c-4.476,7.168-9.259,14.03-14.341,20.746c-5.474,7.236-11.954,13.499-18.288,19.938
		c-4.861,4.942-9.405,10.148-14.973,14.385c-3.2,2.435-6.844,3.9-10.28,5.812c-2.07,1.15-4.267,2.301-3.853,5.004
		c0.462,3.013,3.151,3.438,5.628,3.659c3.852,0.345,6.989-1.206,10.062-3.499c5.181-3.863,9.827-8.016,11.514-14.557
		c0.679-2.63,1.836-4.987,3.238-7.312c2.458-4.074,5.309-4.303,7.808-0.183c4.79,7.893,4.97,16.069,0.917,24.328
		c-0.757,1.541-1.896,2.74,0.863,3.638c8.373,2.723,16.561,6.08,25.037,8.402c5.588,1.532,11.464,1.679,16.185-3.202
		c2.215-2.29,2.194-4.296,0.409-6.654c-0.813-1.075-1.694-2.156-2.218-3.375c-0.617-1.435-2.186-3.069-0.576-4.578
		c1.795-1.684,3.87-0.614,5.421,0.542c6.632,4.948,8.709,11.692,4.651,19.617c0.583,2.788,2.451,1.212,3.877,1.141
		c13.577-1.545,26.63-13.101,23.692-27.08c-1.271-6.049-4.225-11.635-7.803-16.634c-6.025-8.42-13.048-16.073-19.078-24.533
		c-4.744-6.657-8.237-13.795-9.128-21.724c-1.304-11.611,2.468-21.956,12.683-28.149c10.264-6.223,21.184-5.142,31.847,0.315
		c7.287,3.729,11.653,10.342,16.845,16.102c4.313,4.785,9.238,7.62,15.649,8.302c4.344,0.463,4.615,1.347,1.81,4.565
		c-12.303,14.123-25.891,14.285-41.24,5.682c-4.678-2.622-8.088-6.74-12.101-10.148c-0.697-0.592-1.233-1.403-1.986-1.895
		c-3.178-2.073-6.528-4.712-10.407-2.321c-3.906,2.407-4.226,6.543-3.188,10.63c2.152,8.467,7.038,15.435,12.113,22.406
		c6.623,9.097,14.61,17.295,19.663,27.425c4.321,8.66,5.385,18.072,0.789,26.931c-4.341,8.364-12.398,12.483-21.101,15.181
		c-7.729,2.396-15.716,3.277-24.083,3.215c8.628,7.522,28.211,11.062,35.226,3.514c0.478-0.514,1.313-0.686,1.96-1.057
		c2.276-1.307,4.84-4.233,7.145-1.226c2.261,2.95,1.214,6.609-0.776,9.766c-6.689,10.602-17.147,14.26-28.817,15.766
		c-13.924,1.798-27.305-0.05-40.121-5.83 M226.046,247.36c0.931-4.948,2.449-9.348,6.236-13.234
		c7.714-7.92,17.812-12.546,25.928-19.803c6.826-6.104,11.521-13.193,9.613-23.055c-2.478-12.812-11.22-21.036-22.037-25.938
		c-30.442-13.797-61.571-15.6-92.228-0.538c-10.308,5.063-17.81,13.174-16.721,26.181c0.305,3.644,0.368,7.312,0.437,10.972
		c0.065,3.461-0.747,6.869-3.011,9.417c-8.517,9.584-18.981,14.021-31.807,10.593c-9.555-2.554-17.766-0.423-25.802,5.166
		c-7.713,5.364-16.569,7.509-26.048,5.616c-3.991-0.797-7.952-1.75-11.926-2.632c11.403,8.349,24.234,12.094,38.083,10.175
		c11.736-1.627,22.76-6.59,34.415-8.938c10.403-2.096,20.814-3.575,31.302-1.166c2.387,0.548,6.8,0.531,6.377,3.764
		c-0.392,2.997-4.455,1.636-6.78,1.45c-20.347-1.617-39.705,2.462-58.646,9.503c-12.779,4.75-25.879,8.028-39.69,7.638
		c-6.06-0.171-11.959-1.577-19.085-2.479c3.686,3.994,7.226,6.139,11.288,7.402c10.049,3.129,20.197,2.464,30.338,0.519
		c13.503-2.59,26.993-4.911,40.864-3.342c8.224,0.931,16.047,3.578,24.145,5.021c8.523,1.519,16.641,0.484,24.603-2.778
		c7.104-2.91,9.292-9.421,11.901-15.676c0.281-0.674,0.52-1.645,1.4-1.494c1.167,0.199,1.766,1.25,1.901,2.342
		c0.596,4.795-0.417,9.409-3.828,12.736c-9.167,8.949-20.343,12.396-33.006,10.452c-5.563-0.853-11.087-2.063-16.555-3.415
		c-20.2-4.994-39.364-3.514-56.337,9.584c-4.204,3.244-8.667,7.053-8.972,14.152c11.117-11.408,24.414-14.769,39.124-14.166
		c13.632,0.56,26.813,3.832,40.108,6.439c12.141,2.383,24.299,4.79,36.744,2.692c6.802-1.146,13.173-2.764,17.181-9.627
		c2.494-4.269,1.117-8.151,1.065-12.248c-0.623-0.95-0.77-2.146-1.555-3.012c-1.236-5.253,0.691-9.492,4.385-13.041
		c1.852-1.78,4.732-3.011,6.508-1.174c2.084,2.156-1.07,3.609-2.357,5.009c-3.137,3.408-4.298,9.037-2.135,12.906
		c4.749,8.494,11.841,14.725,20.77,18.087c18.624,7.014,37.304,5.533,55.123-2.706c13.175-6.091,25.801-6.928,39.109-0.899
		c15.293,6.927,30.797,6.05,46.203,0.027c0.438-1.729-1.248-0.888-1.766-1.461c-1.964-0.218-3.951-0.314-5.889-0.673
		c-10.969-2.031-21.077-6.691-31.504-10.382c-13.792-4.882-27.613-7.273-41.817-1.281c-5.841,2.465-11.792,4.722-18.057,6.093
		c-9.744,2.134-26.527-2.999-27.566-14.066C225.012,250.507,225.032,248.937,226.046,247.36z M154.649,152.13
		c0.159,1.829,0.544,2.81,2.82,1.772c2.885-1.314,5.926-2.511,9.024-3.094c32.147-6.054,63.431-5.224,91.779,13.596
		c8.898,5.908,16.013,13.804,17.631,25.186c0.264,1.856,0.741,3.683,1.248,6.143c9.141-9.524,17.203-18.971,23.851-29.563
		c3.444-5.488,6.388-11.188,8.889-17.221c4.573-11.028,8.853-22.053,9.665-34.102c0.088-1.297,0.567-3.045-1.002-3.697
		c-1.583-0.66-2.928,0.451-3.963,1.604c-2.312,2.576-4.494,5.273-6.843,7.814c-1.135,1.227-2.623,2.561-4.364,1.375
		c-1.906-1.299-0.717-3.356,0.023-4.543c3.384-5.424,7.704-9.686,13.812-12.418c8.31-3.719,17.274-5.855,25.126-10.646
		c10.549-6.437,13.427-10.829,10.251-22.65c-0.91-3.388-2.875-6.261-4.029-9.472c-3.219-8.95-6.42-17.925-9.08-27.051
		c-1.757-6.029-4.749-11.397-7.694-16.772c-3.876-7.075-10.716-8.681-16.354-4.155c-2.442,1.961-4.739,4.256-6.588,6.777
		c-8.113,11.061-18.945,19.101-30.292,26.218c-12.677,7.951-25.988,14.917-39.193,21.994c-18.113,9.708-33.997,22.467-49.485,35.741
		c-7.785,6.671-15.903,12.979-22.966,20.498c-5.743,6.112-11.18,12.274-12.331,21.021
		C153.541,148.378,153.484,150.262,154.649,152.13z M120.051,25.527c-0.687-0.566-1.51-1.03-2.031-1.721
		c-0.942-1.25-1.24-2.849-3.648-2.365c-2.529,0.507-1.53,2.126-1.729,3.424c-0.242,1.576-1.171,2.496-2.704,2.629
		c-1.502,0.13-3.568,0.397-4.06-1.238c-0.95-3.166-2.866-2.189-4.839-1.696c-2.502,0.625-5.019,1.199-7.51,1.863
		c-6.898,1.842-14.03,2.056-21.676,2.784c2.437,3.354,5.682,4.563,8.673,5.355c14.969,3.958,29.993,4.478,44.995-0.17
		c8.097-2.509,16.183-5.582,24.905-2.755c0.53,0.172,1.305,0.151,1.759-0.123c0.849-0.511,2.249-0.117,2.562-1.534
		c0.311-1.408-0.793-1.654-1.631-2.306c-7.005-5.443-15.432-5.829-23.699-6.979c-2.953-0.411-4.859,0.249-5.964,3.011
		 M364.642,141.076c-0.902-2.223,1.001-3.524,1.9-5.134c-7.463-3.28-18.633-2.041-24.906,2.719
		c-1.083,0.822-2.219,1.831-2.014,3.369c0.236,1.774,1.784,1.817,3.156,1.969c7.255,0.797,13.767,3.019,19.122,8.416
		c3.249,3.277,7.143,5.94,10.874,8.709c8.215,6.098,17.18,7.65,23.622,0.001c-4.656-2.81-8.895-6.107-12.381-10.355
		c-0.695-0.848-1.225-3.107-2.986-1.271c-2.567,2.678-4.283,1.889-6.637,0.199c-0.199-0.219-0.162-0.206-0.356-0.435
		c-0.103-0.121,0,0-0.234-0.531c-0.324-0.735-0.203-0.359-0.219-0.641c-0.009-0.167,0.029-0.577,0.015-0.828
		c-0.021-0.392,0.007-0.765,0.089-0.881c0.318-0.807,1.068-1.228,1.22-1.279c3.534-1.208,2.225-2.178,0.001-3.389
		c-0.896-0.488-1.567-1.39-2.375-2.136c-1.874,3.984-2.467,4.235-7.005,3.068 M306.737,250.401
		c-1.958-0.811-3.955-1.541-5.868-2.448c-10.424-4.941-21.018-5.522-31.956-1.733c-11.333,3.925-22.718,7.004-33.233-2.29
		c-4.113,11.316,4.644,15.161,12.811,15.378c4.788,0.126,9.376-1.203,13.681-3.196c13.296-6.154,26.783-10.326,41.448-5.001
		c0.41,0.149,0.911,0.05,1.368,0.066C305.828,251.498,306.758,252.023,306.737,250.401z M274.374,229.591
		c-8.103,8.473-15.048,13.913-28.429,9.168c-1.462-0.519-3.658-1.622-4.385,0.445c-0.801,2.277,1.217,3.174,3.238,3.948
		c10.227,3.922,19.532,1.263,28.045-4.395c6.172-4.101,10.796-9.604,8.884-19.021C279.963,224.266,276.998,226.849,274.374,229.591z
		 M112.863,212.888c-8.66-1.605-14.732-6.095-16.769-15.089c-0.41-1.808-0.032-4.985-1.93-4.936
		c-2.444,0.065-2.729,3.245-3.214,5.433c-0.222,0.995,0.008,2.096,0.055,3.146c0.319,7.047,11.186,16.488,18.505,16.176
		c3.317-0.143,6.703-0.295,8.954-3.893C116.394,213.419,114.617,213.213,112.863,212.888z M272.615,41.451
		c-13.078,2.179-24.138,7.868-32.192,18.683C251.963,55.222,262.76,49.141,272.615,41.451z M119.826,192.458
		c-3.223-0.398-4.927,2.196-6.565,4.018c-2.048,2.277-3.04,5.798-0.931,8.395c2.117,2.607,5.709,2.403,8.871,1.842
		c1.829-0.325,2.197-2.166,0.934-3.039c-3.347-2.312-2.763-5.294-2.134-8.433C120.606,194.271,120.651,193.337,119.826,192.458z
		 M126.464,26.414c-0.594-1.284-2.745-0.968-2.843-2.764c-1.134,0.607-2.269,1.214-3.403,1.82c-0.939,1.772-1.955,3.855,0.038,5.242
		c1.954,1.358,4.418,2.096,6.274-0.574C127.429,28.88,127.45,27.638,126.464,26.414z M364.434,141.285
		c-1.014-0.071-2.033-0.102-3.042-0.22c-1.958-0.228-3.187,0.638-3.845,2.437c-0.643,1.753,0.188,3.108,1.56,3.841
		c1.494,0.798,3.243,0.756,4.711-0.35c1.369-1.032,1.18-2.691,1.5-4.138C365.341,142.152,365.084,141.607,364.434,141.285z
		 M373.914,148.638c-1.189,0.053-2.379,0.112-3.568,0.156c-1.832,0.067-3.277,0.7-3.666,2.684c-0.283,1.442-0.005,2.873,1.384,3.537
		c1.669,0.798,3.543,1.136,5.118-0.251c1.634-1.439,0.86-3.364,0.764-5.132C373.936,149.301,373.925,148.97,373.914,148.638z
		 M154.649,152.13c-0.022-1.882-0.044-3.764-0.065-5.646C152.001,148.396,152.052,150.277,154.649,152.13z M354.846,272.5
		c-1.331-0.791-2.646-0.223-3.941-0.119c0.588,0.487,1.177,0.975,1.766,1.461C353.499,273.614,354.43,273.552,354.846,272.5z
		 M251.714,200.504c1.94-2.819,2.157-5.96,0.664-8.487c-1.261-2.137-3.663-3.838-6.916-3.386c-3.542,0.493-4.817,2.79-5.656,5.716
		c-0.292,1.021-0.468,2.077-0.762,3.1c-0.972,3.39-6.39,7.297-9.771,6.791c-3.277-0.488-5.076-2.608-6.194-5.783
		c-1.571-4.464-5.432-6.564-8.25-5.001c-4.378,2.431-5.143,8.739-2.148,12.921c4.726,6.596,11.772,6.785,18.346,7.597
		C240.435,213.859,244.368,211.18,251.714,200.504z M175.517,168.925c0.236-2.779-1.937-3.618-4.166-3.804
		c-2.123-0.176-3.534,1.112-3.712,3.204c-0.207,2.417,1.295,3.562,3.119,3.775C173.433,172.084,175.313,171.315,175.517,168.925z
		 M178.608,181.378c-0.742-1.336-1.931-2.012-3.388-1.744c-1.435,0.262-3.134,0.377-3.843,1.959
		c-0.581,1.297-0.614,2.816,0.594,3.767c1.293,1.018,2.846,1.672,4.599,1.053c1.057-0.373,1.863-0.999,2.178-2.128
		C179.329,183.285,179.312,182.314,178.608,181.378z M210.187,160.515c-1.792-0.12-3.221,0.999-3.249,3.07
		c-0.03,2.343,1.19,3.892,3.541,3.849c1.973-0.037,4.083-0.483,3.964-3.17C214.559,161.145,212.262,160.653,210.187,160.515z
		 M329.023,41.982c-0.399-1.115-0.528-2.708-1.985-2.7c-1.525,0.008-1.5,1.633-1.81,2.761c-1.752,6.405-3.087,12.872-3.705,19.513
		c-0.55,5.916-1.206,12.102-3.913,17.287c-2.542,4.87-2.704,10.135-4.501,15.053c-0.739,2.021,0.458,3.123,2.847,2.369
		c1.646-0.519,2.423-1.632,3.058-3.071c6.652-15.098,9.402-31.147,11.584-47.337C329.584,44.764,330.067,43.063,329.023,41.982z
		 M207.717,114.159c-0.246-2.579-2.522-3.15-4.339-2.99c-1.89,0.166-4.638,0.579-4.708,3.201c-0.081,2.999,2.966,2.784,4.745,3.786
		C205.482,117.287,208.001,117.129,207.717,114.159z M266.575,76.082c0.081,2.538,2.083,3.263,4.128,3.316
		c2.367,0.061,4.266-0.972,4.067-3.735c-0.168-2.331-1.67-3.451-4.39-3.344C268.428,72.547,266.488,73.345,266.575,76.082z
		 M212.538,130.838c-2.436,0.054-4.305,1.07-4.332,3.665c-0.022,2.297,1.404,3.627,3.874,3.424c2.436-0.2,4.01-1.312,4.096-4.231
		C216.041,131.652,214.68,130.791,212.538,130.838z M228.526,92.775c0.081,2.817,1.877,4.126,4.477,4.06
		c2.151-0.054,3.25-1.54,3.14-3.675c-0.134-2.608-1.721-3.716-4.22-3.69C229.67,89.428,228.463,90.562,228.526,92.775z
		 M115.23,31.864c-0.107-2.329-2.243-3.251-4.07-3.296c-2-0.05-4.269,0.603-4.261,3.427c0.007,2.607,2.424,2.589,4.254,3.905
		C112.455,34.375,115.36,34.686,115.23,31.864z M99.085,28.549c-2.343-0.377-3.759,1.159-3.774,3.466
		c-0.014,2.117,1.438,3.555,3.468,3.347c1.808-0.186,4.021-0.625,4.18-3.981C103.111,29.332,100.892,28.839,99.085,28.549z
		 M384.366,158.187c-0.019-2.521-1.72-3.352-3.954-3.375c-2.403-0.025-3.778,1.216-3.685,3.608c0.087,2.21,1.584,3.119,3.671,3.107
		C382.665,161.508,384.385,160.745,384.366,158.187z"/>
</g>
</svg>
