<?xml version="1.0" standalone="no"?>
<!DOCTYPE svg PUBLIC "-//W3C//DTD SVG 20010904//EN"
 "http://www.w3.org/TR/2001/REC-SVG-20010904/DTD/svg10.dtd">
<svg version="1.0" xmlns="http://www.w3.org/2000/svg"
 width="735.000000pt" height="339.000000pt" viewBox="0 0 735.000000 339.000000"
 preserveAspectRatio="xMidYMid meet">

<g transform="translate(0.000000,339.000000) scale(0.100000,-0.100000)"
fill="#000000" stroke="none">
<path d="M2052 2730 c-13 -6 -49 -36 -80 -69 -60 -61 -98 -85 -205 -125 -113
-42 -161 -81 -211 -167 -26 -46 -99 -120 -252 -254 -176 -155 -224 -224 -231
-334 -4 -60 -28 -131 -44 -131 -4 0 -17 -23 -29 -52 -18 -41 -21 -61 -15 -105
4 -32 3 -53 -3 -53 -16 0 -23 30 -16 65 3 18 2 35 -3 38 -15 9 -72 -30 -92
-64 l-19 -30 -11 32 c-6 18 -11 42 -11 55 0 35 -16 37 -50 7 -23 -21 -33 -40
-38 -77 l-7 -49 -31 26 c-17 15 -44 53 -60 84 -24 50 -28 70 -28 148 0 79 3
97 27 142 55 106 129 153 358 227 149 49 240 108 287 186 30 50 33 61 30 120
-7 121 -82 230 -198 283 -58 27 -75 30 -160 30 -78 0 -109 -5 -173 -27 -78
-28 -135 -31 -194 -11 -33 11 -30 -16 6 -57 62 -71 179 -100 316 -78 194 31
242 24 310 -45 54 -54 65 -97 40 -162 -35 -92 -124 -149 -345 -222 -69 -23
-143 -53 -166 -66 -146 -85 -215 -260 -168 -423 22 -73 51 -119 110 -170 26
-23 45 -44 43 -46 -2 -1 -32 -20 -66 -41 -59 -36 -66 -37 -124 -32 -48 4 -68
11 -87 30 -23 23 -24 29 -15 65 8 32 8 39 -3 35 -23 -9 -44 -51 -44 -89 0 -55
75 -126 162 -152 l63 -20 -38 -7 c-52 -10 -146 -2 -182 16 -25 12 -47 41 -69
94 -3 6 -9 3 -15 -5 -12 -17 -5 -51 19 -100 39 -77 99 -118 186 -127 l53 -6
-20 -28 c-39 -55 -63 -159 -40 -173 5 -4 24 12 41 34 47 59 99 83 195 88 81 4
103 1 274 -37 52 -12 116 -21 142 -21 57 0 126 28 157 64 24 28 26 28 77 -10
45 -33 143 -57 217 -52 47 3 84 14 142 41 94 45 138 47 227 11 130 -53 281
-28 336 55 23 34 30 75 15 85 -5 3 -26 -7 -46 -22 -47 -33 -96 -34 -163 -1
l-48 23 65 12 c153 27 214 82 213 194 -1 67 -18 109 -90 218 -102 156 -129
228 -98 262 10 11 24 20 32 20 7 0 40 -24 72 -54 75 -69 91 -77 151 -78 38 0
57 6 85 28 20 15 40 35 46 46 8 15 6 18 -16 18 -24 0 -47 20 -153 134 -61 65
-162 72 -221 14 -48 -47 -64 -135 -40 -222 10 -37 25 -63 134 -233 46 -73 49
-83 50 -143 0 -50 -5 -71 -20 -92 -25 -34 -85 -68 -119 -68 -24 0 -25 2 -15
27 13 34 3 79 -23 103 -29 26 -41 15 -23 -20 21 -41 19 -57 -10 -76 -31 -20
-81 -15 -145 14 -25 11 -55 23 -68 27 -17 5 -21 11 -16 23 4 10 9 44 11 77 3
47 -1 65 -15 84 -25 31 -39 21 -53 -35 -13 -52 -72 -121 -110 -129 -29 -7 -62
17 -53 38 2 7 24 24 47 39 47 30 62 45 152 158 84 104 119 160 175 277 32 69
70 200 70 245 0 48 26 83 94 126 110 69 117 110 53 312 -20 63 -46 148 -57
187 -30 106 -77 148 -138 123z m79 -84 c14 -22 34 -67 43 -100 10 -34 34 -112
53 -173 53 -170 41 -198 -123 -273 -77 -36 -134 -86 -134 -118 0 -22 17 -12
44 23 31 40 56 46 56 13 -1 -53 -51 -218 -92 -305 -24 -52 -117 -194 -148
-226 -4 -5 -13 14 -19 42 -26 120 -121 205 -281 248 -85 24 -270 21 -342 -5
-53 -19 -58 -20 -60 -4 -7 84 26 136 187 295 76 76 175 165 220 198 107 80
101 75 193 130 78 46 194 140 233 190 98 123 124 133 170 65z m-1071 -28 c47
-13 74 -34 67 -52 -4 -10 -16 -13 -44 -9 -24 3 -60 -3 -100 -16 -111 -37 -272
-25 -313 23 -11 14 -8 16 21 16 19 0 52 5 74 11 73 19 95 22 95 10 0 -19 27
-12 33 9 5 20 27 28 27 10 0 -5 9 -10 20 -10 12 0 20 7 20 16 0 16 21 15 100
-8z m755 -116 c-66 -57 -202 -148 -210 -141 -4 5 52 68 77 88 15 11 125 60
138 61 2 0 0 -4 -5 -8z m514 -621 c9 -6 10 -11 2 -15 -16 -10 -13 -36 4 -36 9
0 18 7 21 15 6 14 8 13 19 -2 10 -13 10 -22 3 -31 -15 -18 7 -41 23 -25 8 8
23 -1 55 -35 46 -48 46 -64 -1 -76 -36 -9 -64 6 -138 73 -37 33 -79 63 -94 67
-48 10 -53 13 -47 29 14 36 115 60 153 36z m-874 -131 c163 -24 267 -93 310
-207 31 -80 -3 -155 -107 -233 -86 -64 -118 -112 -118 -173 0 -41 5 -53 30
-77 53 -49 94 -48 220 5 87 37 150 31 280 -25 52 -23 119 -44 148 -47 67 -7
56 -25 -28 -43 -72 -15 -146 -7 -209 22 -57 27 -143 29 -186 6 -82 -46 -110
-53 -205 -53 -111 0 -155 18 -214 86 -45 53 -54 97 -30 138 22 37 12 51 -17
25 -19 -17 -21 -27 -16 -88 2 -39 1 -82 -4 -96 -26 -72 -160 -85 -354 -35
-187 48 -305 37 -369 -34 -26 -29 -37 -26 -25 7 14 37 54 77 108 109 59 34
150 41 246 18 146 -36 209 -28 267 30 35 35 54 83 40 97 -8 8 -14 3 -22 -18
-35 -99 -110 -123 -260 -85 -104 26 -155 26 -282 1 -81 -17 -110 -19 -154 -11
-49 9 -103 36 -104 52 0 3 36 4 81 1 93 -5 161 7 265 49 93 37 198 59 287 59
67 1 71 2 52 16 -31 25 -180 13 -275 -21 -104 -38 -193 -43 -259 -15 -60 27
-92 56 -45 43 16 -4 52 -8 80 -8 43 0 60 6 106 38 45 31 63 37 105 37 27 0 52
3 55 6 4 3 -14 25 -38 49 -35 35 -44 52 -44 79 0 18 6 39 14 45 11 9 15 5 20
-23 8 -42 51 -96 76 -96 35 0 52 -11 39 -26 -6 -8 -17 -14 -24 -14 -7 0 -16
-7 -19 -16 -5 -14 -1 -16 30 -11 88 14 117 59 124 188 5 90 8 101 36 136 52
64 177 115 299 122 11 0 52 -4 90 -9z m-510 -293 c3 -47 2 -48 -24 -45 -20 2
-27 9 -29 31 -4 29 23 70 41 64 5 -1 10 -24 12 -50z m903 -186 c-20 -71 -112
-124 -186 -105 -21 5 -38 16 -40 26 -3 14 5 16 56 11 55 -5 61 -3 93 25 19 17
44 47 54 66 23 43 37 29 23 -23z m-163 -134 c30 1 69 9 86 17 49 24 126 20
188 -10 29 -14 51 -27 49 -30 -3 -2 -31 2 -63 11 -65 17 -87 14 -165 -22 -30
-15 -78 -28 -106 -31 -43 -4 -55 -1 -73 17 -20 20 -28 61 -14 74 3 4 15 -1 25
-10 14 -12 35 -17 73 -16z"/>
<path d="M2093 2459 c-7 -30 -15 -80 -18 -112 -4 -32 -15 -84 -26 -114 -22
-64 -24 -96 -7 -91 31 11 92 304 72 349 -9 19 -11 16 -21 -32z"/>
<path d="M1770 2280 c-11 -7 -12 -12 -3 -21 14 -14 46 -4 41 13 -6 16 -20 19
-38 8z"/>
<path d="M1553 2164 c-7 -18 17 -38 31 -24 11 11 1 40 -14 40 -6 0 -13 -7 -17
-16z"/>
<path d="M1390 2015 c0 -10 7 -15 18 -13 21 4 19 22 -2 26 -10 2 -16 -3 -16
-13z"/>
<path d="M1447 1904 c-14 -14 -7 -35 11 -32 9 2 17 10 17 17 0 16 -18 25 -28
15z"/>
<path d="M940 2580 c0 -11 7 -20 15 -20 8 0 15 9 15 20 0 11 -7 20 -15 20 -8
0 -15 -9 -15 -20z"/>
<path d="M806 2573 c-12 -12 -6 -33 9 -33 8 0 15 6 15 14 0 17 -14 28 -24 19z"/>
<path d="M877 2573 c-4 -3 -7 -12 -7 -20 0 -15 26 -18 34 -4 7 11 -18 33 -27
24z"/>
<path d="M2282 1823 c5 -25 28 -28 28 -4 0 12 -6 21 -16 21 -9 0 -14 -7 -12
-17z"/>
<path d="M2334 1779 c-3 -6 -2 -15 4 -21 13 -13 32 -2 32 18 0 16 -26 19 -36
3z"/>
<path d="M2397 1743 c-13 -12 -7 -33 8 -33 8 0 15 9 15 20 0 20 -11 26 -23 13z"/>
<path d="M1430 1696 c0 -8 4 -17 8 -20 13 -8 35 11 28 23 -10 16 -36 14 -36
-3z"/>
<path d="M1206 1671 c-3 -5 0 -14 8 -20 10 -8 16 -8 25 2 6 8 8 17 4 20 -9 10
-31 9 -37 -2z"/>
<path d="M1235 1581 c-8 -15 3 -31 21 -31 9 0 14 7 12 17 -4 20 -24 28 -33 14z"/>
<path d="M1620 1511 c-5 -11 -10 -26 -10 -35 0 -22 -28 -46 -54 -46 -16 0 -27
10 -39 35 -9 19 -24 35 -32 35 -21 0 -37 -44 -26 -73 15 -39 39 -51 103 -52
57 0 62 2 89 35 45 53 39 120 -11 120 -5 0 -14 -9 -20 -19z"/>
<path d="M3484 2521 c-19 -12 -37 -36 -50 -67 -17 -44 -19 -75 -19 -314 0
-229 2 -272 18 -316 27 -77 45 -89 133 -89 65 0 76 3 99 25 45 45 58 147 52
413 -5 266 -13 308 -66 344 -43 29 -122 31 -167 4z m116 -73 c19 -21 20 -34
20 -303 0 -241 -2 -284 -16 -303 -22 -33 -64 -26 -83 12 -19 40 -28 392 -12
506 14 108 45 138 91 88z"/>
<path d="M3949 2525 c-63 -34 -79 -109 -78 -385 0 -352 22 -410 155 -410 62 0
91 17 116 69 19 39 23 68 28 194 3 82 3 212 0 290 -8 206 -38 258 -149 257
-26 -1 -58 -7 -72 -15z m105 -70 c23 -23 28 -99 24 -355 -2 -168 -7 -241 -16
-257 -15 -26 -53 -30 -75 -8 -21 21 -30 168 -25 401 4 170 7 196 23 214 21 24
48 26 69 5z"/>
<path d="M5085 2521 c-42 -25 -64 -87 -64 -186 -1 -108 19 -149 102 -214 79
-63 97 -97 97 -189 0 -84 -20 -119 -62 -109 -29 8 -38 30 -38 100 l0 47 -50 0
c-48 0 -50 -1 -50 -27 1 -43 25 -146 40 -170 19 -29 52 -43 106 -43 66 0 107
21 128 65 24 49 32 169 16 235 -13 54 -36 83 -143 176 l-47 40 0 85 c0 100 6
126 30 134 41 13 70 -30 70 -101 l0 -34 51 0 c43 0 50 2 45 18 -2 9 -8 37 -11
62 -10 61 -30 97 -65 115 -38 20 -118 18 -155 -4z"/>
<path d="M5523 2520 c-55 -33 -63 -83 -63 -383 0 -362 12 -397 136 -405 l64
-4 0 -54 0 -54 46 0 45 0 -3 403 c-4 443 -7 465 -68 500 -39 23 -117 22 -157
-3z m103 -58 c30 -20 34 -55 34 -317 0 -290 -6 -325 -53 -325 -36 0 -46 13
-57 69 -13 69 -13 452 1 511 13 58 44 83 75 62z"/>
<path d="M2970 2136 l0 -396 108 0 c125 0 149 9 177 65 41 82 28 292 -21 346
-15 17 -15 22 0 65 20 59 21 192 2 237 -26 62 -47 72 -162 75 l-104 4 0 -396z
m185 294 c21 -40 20 -161 -1 -206 -14 -30 -21 -34 -55 -34 l-39 0 0 128 c0 71
3 132 7 135 3 4 21 7 39 7 27 0 37 -6 49 -30z m16 -331 c17 -27 31 -124 25
-172 -9 -77 -27 -97 -86 -97 l-50 0 0 138 c0 76 3 142 8 146 11 12 93 0 103
-15z"/>
<path d="M4330 2135 l0 -395 50 0 50 0 1 168 c0 171 3 177 33 72 8 -30 28 -97
43 -147 l28 -93 43 0 c48 0 52 10 28 82 -14 43 -35 116 -56 193 -6 22 -18 63
-26 90 -14 53 -11 72 58 280 11 33 26 79 33 103 l13 42 -46 0 -47 0 -52 -158
-52 -157 0 158 -1 157 -50 0 -50 0 0 -395z"/>
<path d="M5913 2208 c5 -343 13 -408 51 -447 29 -28 106 -39 158 -22 75 25 88
94 88 488 l0 303 -50 0 -50 0 0 -333 c0 -288 -2 -336 -16 -355 -10 -15 -24
-22 -37 -20 -43 6 -47 33 -47 381 l0 327 -51 0 -51 0 5 -322z"/>
<path d="M6370 2135 l0 -395 50 0 50 0 0 395 0 395 -50 0 -50 0 0 -395z"/>
<path d="M6640 2135 l0 -395 104 0 c131 0 146 10 171 109 14 57 16 110 13 317
-3 237 -4 251 -26 296 -28 57 -56 68 -179 68 l-83 0 0 -395z m174 310 c24 -25
27 -66 24 -331 -3 -281 -4 -284 -69 -284 l-39 0 0 315 0 315 34 0 c19 0 41 -7
50 -15z"/>
<path d="M4182 1240 c-30 -12 -42 -48 -42 -124 0 -49 5 -69 21 -90 24 -30 72
-35 107 -10 20 14 22 23 22 109 0 94 0 94 -30 110 -33 17 -45 18 -78 5z m71
-24 c14 -11 17 -29 17 -93 0 -85 -8 -103 -49 -103 -45 0 -61 26 -61 102 0 55
4 72 20 88 23 23 47 25 73 6z"/>
<path d="M5278 1235 c-31 -17 -44 -74 -35 -151 6 -59 30 -84 77 -84 51 0 72
26 78 95 7 83 -4 122 -38 140 -35 18 -47 18 -82 0z m77 -19 c27 -19 34 -135
11 -171 -21 -33 -68 -34 -90 -3 -24 35 -22 142 4 168 23 23 49 25 75 6z"/>
<path d="M6140 1243 c-42 -16 -50 -34 -50 -119 0 -73 3 -86 22 -104 26 -24 75
-26 106 -4 20 14 22 23 22 109 0 94 0 94 -30 110 -30 16 -45 17 -70 8z m63
-27 c14 -11 17 -29 17 -93 0 -85 -8 -103 -48 -103 -53 0 -62 14 -62 100 0 70
2 81 22 94 27 19 47 20 71 2z"/>
<path d="M6378 1235 c-19 -11 -29 -26 -34 -51 -10 -56 0 -141 21 -164 24 -26
85 -27 108 -2 21 23 32 96 23 156 -6 37 -13 49 -36 61 -36 18 -47 18 -82 0z
m76 -18 c24 -17 33 -131 14 -167 -20 -37 -71 -40 -94 -6 -23 37 -16 152 11
172 24 18 46 18 69 1z"/>
<path d="M2935 1230 c3 -5 17 -10 30 -10 24 0 24 -1 27 -107 2 -64 7 -108 13
-108 6 0 11 44 13 108 3 106 3 107 27 107 14 0 25 5 25 10 0 6 -30 10 -71 10
-44 0 -68 -4 -64 -10z"/>
<path d="M3170 1120 c0 -73 4 -120 10 -120 6 0 10 25 10 55 l0 55 50 0 50 0 0
-55 c0 -30 5 -55 10 -55 6 0 10 47 10 120 0 73 -4 120 -10 120 -5 0 -10 -22
-10 -50 l0 -50 -50 0 -50 0 0 50 c0 28 -4 50 -10 50 -6 0 -10 -47 -10 -120z"/>
<path d="M3420 1120 l0 -120 55 0 c30 0 55 5 55 10 0 6 -20 10 -45 10 l-45 0
0 44 c0 44 0 45 38 48 20 2 37 8 37 13 0 6 -17 11 -37 13 -37 3 -38 4 -38 43
l0 39 45 0 c25 0 45 5 45 10 0 6 -25 10 -55 10 l-55 0 0 -120z"/>
<path d="M3780 1232 c0 -12 47 -171 61 -204 6 -15 15 -26 19 -23 4 2 18 32 30
65 12 33 26 57 30 55 5 -3 14 -30 21 -61 7 -30 16 -57 20 -59 11 -7 25 16 37
60 6 22 18 66 27 98 17 62 15 100 -3 57 -6 -14 -18 -50 -27 -80 -9 -30 -19
-62 -22 -70 -3 -8 -16 23 -29 69 -24 87 -53 138 -40 72 4 -22 0 -51 -11 -80
-33 -91 -37 -90 -67 9 -15 49 -31 92 -36 95 -6 3 -10 2 -10 -3z"/>
<path d="M4400 1120 c0 -73 4 -120 10 -120 6 0 10 18 10 41 0 36 2 40 22 37
15 -2 29 -16 41 -40 9 -21 22 -38 27 -38 14 0 12 17 -6 45 -14 22 -14 25 5 44
15 15 21 34 21 66 0 61 -24 85 -85 85 l-45 0 0 -120z m98 88 c16 -16 16 -80 0
-96 -7 -7 -27 -12 -45 -12 l-33 0 0 60 0 60 33 0 c18 0 38 -5 45 -12z"/>
<path d="M4632 1123 l3 -118 49 -3 c27 -2 54 2 59 7 8 8 -4 11 -41 11 l-52 0
0 110 c0 69 -4 110 -10 110 -7 0 -10 -42 -8 -117z"/>
<path d="M4840 1120 l0 -120 45 0 c92 0 112 29 103 152 -5 74 -21 88 -95 88
l-53 0 0 -120z m114 84 c11 -11 16 -35 16 -81 0 -81 -15 -103 -72 -103 l-38 0
0 100 0 100 39 0 c23 0 46 -7 55 -16z"/>
<path d="M5507 1233 c-11 -10 -8 -221 3 -228 6 -4 10 15 10 49 l0 56 41 0 c52
0 48 24 -4 28 -36 3 -37 4 -37 43 l0 39 44 0 c25 0 48 5 51 10 7 11 -97 14
-108 3z"/>
<path d="M5860 1120 l0 -120 43 0 c64 0 87 21 87 80 0 27 -4 51 -9 55 -5 3 -7
22 -4 42 8 45 -13 63 -74 63 l-43 0 0 -120z m88 91 c8 -5 12 -17 10 -27 -2
-14 -13 -20 -41 -22 -35 -3 -37 -2 -37 27 0 27 3 31 28 31 15 0 33 -4 40 -9z
m10 -93 c17 -17 15 -64 -4 -82 -8 -9 -29 -16 -45 -16 -29 0 -29 1 -29 55 l0
55 33 0 c18 0 38 -5 45 -12z"/>
<path d="M6600 1126 c0 -66 4 -117 10 -121 6 -4 10 11 10 38 0 30 7 53 22 72
l21 27 24 -63 c13 -35 28 -68 33 -73 17 -17 11 19 -16 90 -25 67 -25 68 -6 93
31 43 34 51 20 51 -7 0 -29 -23 -48 -50 -19 -27 -38 -50 -42 -50 -5 0 -8 23
-8 50 0 28 -4 50 -10 50 -6 0 -10 -45 -10 -114z"/>
<path d="M6848 1228 c-16 -13 -21 -28 -19 -59 0 -9 23 -28 51 -43 61 -33 75
-55 54 -84 -18 -26 -50 -28 -76 -5 -10 9 -21 13 -26 9 -11 -12 38 -46 67 -46
47 1 77 39 65 85 -4 16 -24 33 -60 51 -42 21 -54 32 -54 50 0 28 43 43 71 25
30 -18 44 -13 24 9 -21 23 -72 27 -97 8z"/>
<path d="M310 555 l0 -45 3330 0 3330 0 0 45 0 45 -3330 0 -3330 0 0 -45z"/>
</g>
</svg>
