<?xml version="1.0" standalone="no"?>
<!DOCTYPE svg PUBLIC "-//W3C//DTD SVG 20010904//EN"
 "http://www.w3.org/TR/2001/REC-SVG-20010904/DTD/svg10.dtd">
<svg version="1.0" xmlns="http://www.w3.org/2000/svg"
 width="735.000000pt" height="339.000000pt" viewBox="0 0 735.000000 339.000000"
 preserveAspectRatio="xMidYMid meet">
<metadata>
Created by potrace 1.10, written by Peter Selinger 2001-2011
</metadata>
<g transform="translate(0.000000,339.000000) scale(0.100000,-0.100000)"
fill="#000000" stroke="none">
<path d="M20 3380 c0 -5 4 -10 9 -10 6 0 13 5 16 10 3 6 -1 10 -9 10 -9 0 -16
-4 -16 -10z"/>
<path d="M1 3354 c0 -11 3 -14 6 -6 3 7 2 16 -1 19 -3 4 -6 -2 -5 -13z"/>
<path d="M1212 2946 c-41 -38 -145 -96 -172 -96 -17 0 -70 -52 -91 -89 -11
-21 -69 -80 -127 -132 -121 -108 -162 -164 -162 -223 0 -27 -9 -52 -27 -80
-22 -30 -28 -51 -27 -87 0 -26 -3 -46 -8 -43 -4 3 -8 18 -8 35 0 16 -4 29 -10
29 -11 0 -50 -40 -50 -52 0 -5 -4 -6 -10 -3 -5 3 -10 19 -10 36 0 19 -5 29
-15 29 -18 0 -49 -56 -41 -76 7 -20 -8 -18 -26 4 -33 37 -51 88 -51 143 1 95
46 152 153 194 35 14 69 25 74 25 23 0 122 52 149 78 65 61 73 120 27 198 -32
58 -72 87 -143 106 -43 11 -58 10 -135 -10 -99 -25 -123 -27 -140 -10 -9 9
-12 9 -12 -3 0 -19 10 -31 45 -56 46 -31 89 -36 190 -22 76 10 99 10 124 -1
62 -25 87 -85 60 -144 -18 -39 -86 -80 -189 -115 -118 -40 -162 -68 -195 -125
-54 -92 -42 -201 29 -272 l42 -42 -52 -28 c-49 -27 -53 -27 -90 -13 -35 14
-39 18 -37 50 l1 34 -19 -24 c-10 -13 -19 -29 -19 -37 0 -26 61 -84 101 -94
21 -6 39 -13 39 -16 0 -7 -103 -2 -128 7 -13 5 -29 23 -36 40 -16 37 -29 24
-20 -20 10 -47 77 -101 127 -101 l38 0 -20 -26 c-21 -26 -38 -90 -28 -101 4
-3 20 9 37 26 17 17 49 36 71 42 41 13 49 12 236 -22 77 -14 126 -6 151 26
l19 25 23 -20 c54 -47 166 -51 244 -9 49 25 36 26 178 -14 67 -19 168 31 168
84 0 23 -8 23 -34 4 -24 -18 -52 -19 -95 -4 -42 15 -39 29 5 29 53 0 103 28
122 67 21 45 7 99 -51 190 -49 75 -69 126 -61 148 10 25 35 17 80 -25 51 -47
95 -53 138 -19 32 25 33 35 3 43 -13 3 -43 28 -66 56 -38 46 -46 50 -85 50
-104 0 -130 -119 -51 -237 29 -44 34 -58 23 -65 -10 -8 -9 -9 4 -4 34 10 61
-86 38 -130 -13 -23 -65 -54 -91 -54 -10 0 -10 3 -1 12 17 17 15 43 -8 69 -13
17 -19 19 -20 9 0 -8 5 -22 10 -30 10 -15 -13 -50 -34 -50 -9 0 -114 40 -125
47 -3 2 1 9 7 15 17 17 15 73 -3 88 -18 15 -18 15 -34 -27 -16 -41 -54 -76
-78 -71 -26 5 -22 26 10 47 44 28 133 139 172 213 40 75 77 176 70 188 -10 16
18 71 44 84 79 41 89 71 57 167 -13 41 -31 99 -40 129 -19 67 -41 100 -67 100
-11 0 -41 -20 -67 -44z m92 -8 c17 -28 76 -218 76 -246 0 -39 -13 -53 -80 -87
-59 -30 -118 -85 -90 -85 5 0 15 9 22 20 21 34 37 25 31 -17 -14 -88 -93 -255
-137 -293 -14 -11 -16 -9 -16 11 0 57 -68 124 -154 153 -63 20 -182 21 -230 1
l-36 -15 0 26 c0 15 11 46 24 68 38 64 186 199 309 280 114 75 163 117 206
174 28 38 55 41 75 10z m-731 -45 c-3 -7 2 -13 11 -13 13 0 15 6 10 26 -6 25
-5 26 19 20 79 -19 109 -46 54 -46 -19 0 -54 -7 -77 -15 -23 -8 -57 -15 -74
-14 -38 0 -98 20 -103 34 -3 10 5 12 89 17 25 2 46 5 46 8 -1 17 4 19 16 8 7
-7 11 -19 9 -25z m542 -51 c-19 -17 -124 -82 -131 -82 -15 0 42 52 76 71 36
19 72 26 55 11z m315 -382 c0 -6 -7 -13 -15 -16 -16 -7 -21 -24 -6 -24 5 0 16
7 25 15 11 11 17 12 22 4 4 -7 -1 -18 -11 -25 -10 -8 -15 -17 -11 -21 4 -4 10
-3 14 2 13 18 31 15 57 -11 57 -57 -17 -61 -82 -4 -25 22 -54 40 -64 40 -27 0
-35 21 -14 37 22 15 85 18 85 3z m-441 -107 c61 -31 91 -72 96 -129 3 -34 -2
-42 -71 -111 -56 -56 -74 -80 -74 -101 0 -32 7 -43 38 -64 25 -17 47 -14 130
17 41 15 99 13 127 -4 6 -3 12 -6 15 -7 3 0 19 -7 35 -14 17 -7 48 -16 70 -20
l40 -7 -30 -12 c-41 -18 -106 -16 -143 3 -41 21 -94 20 -140 -3 -85 -42 -160
-37 -222 16 -31 27 -40 42 -40 67 0 18 5 37 12 44 8 8 8 12 1 12 -22 0 -33
-29 -31 -78 2 -41 -2 -55 -17 -67 -27 -21 -133 -17 -232 8 -66 16 -85 17 -123
7 -25 -6 -55 -21 -67 -32 -25 -24 -33 -6 -10 22 43 55 115 77 192 60 102 -23
122 -23 160 0 19 12 38 33 41 46 9 33 -3 43 -15 12 -20 -54 -78 -69 -165 -44
-48 14 -66 15 -119 5 -96 -18 -139 -19 -174 -2 -44 20 -42 34 3 21 45 -12 98
-3 177 29 42 17 89 27 144 31 82 5 99 14 46 25 -38 7 -143 -12 -182 -32 -29
-16 -84 -13 -131 5 -50 20 -53 36 -4 21 32 -10 42 -8 90 17 44 23 63 27 96 23
47 -6 91 11 108 42 5 11 10 40 10 65 0 61 13 89 51 117 77 55 214 60 308 12z
m-450 -194 c37 -17 28 -34 -13 -23 -28 7 -56 43 -56 72 0 33 14 33 24 0 8 -22
22 -38 45 -49z m39 64 c-1 -10 1 -24 5 -31 9 -14 -16 -27 -33 -17 -12 8 -3 46
14 57 16 11 18 10 14 -9z m562 -117 c0 -21 -40 -66 -68 -77 -29 -11 -82 -3
-82 13 0 6 10 8 25 4 32 -8 82 17 97 49 12 27 28 33 28 11z m-120 -101 c12 -2
38 2 57 10 47 20 80 18 128 -4 44 -21 27 -28 -23 -10 -27 9 -42 7 -101 -16
-79 -31 -111 -25 -111 22 0 21 3 23 14 14 8 -7 24 -14 36 -16z"/>
<path d="M1276 2793 c-4 -32 -14 -82 -22 -110 -16 -59 -17 -62 -7 -65 3 -2 14
20 24 49 21 64 35 183 21 183 -5 0 -13 -26 -16 -57z"/>
<path d="M1080 2700 c0 -5 7 -10 15 -10 8 0 15 5 15 10 0 6 -7 10 -15 10 -8 0
-15 -4 -15 -10z"/>
<path d="M950 2635 c0 -9 5 -15 11 -13 6 2 11 8 11 13 0 5 -5 11 -11 13 -6 2
-11 -4 -11 -13z"/>
<path d="M850 2545 c0 -9 5 -15 11 -13 6 2 11 8 11 13 0 5 -5 11 -11 13 -6 2
-11 -4 -11 -13z"/>
<path d="M875 2471 c-3 -5 -1 -12 5 -16 12 -7 30 2 30 16 0 12 -27 12 -35 0z"/>
<path d="M490 2880 c0 -5 5 -10 10 -10 6 0 10 5 10 10 0 6 -4 10 -10 10 -5 0
-10 -4 -10 -10z"/>
<path d="M530 2880 c0 -5 7 -10 16 -10 8 0 12 5 9 10 -3 6 -10 10 -16 10 -5 0
-9 -4 -9 -10z"/>
<path d="M1460 2370 c0 -5 7 -10 15 -10 8 0 15 5 15 10 0 6 -7 10 -15 10 -8 0
-15 -4 -15 -10z"/>
<path d="M872 2349 c2 -6 8 -10 13 -10 5 0 11 4 13 10 2 6 -4 11 -13 11 -9 0
-15 -5 -13 -11z"/>
<path d="M735 2330 c-3 -5 1 -10 9 -10 9 0 16 5 16 10 0 6 -4 10 -9 10 -6 0
-13 -4 -16 -10z"/>
<path d="M756 2283 c-11 -11 -6 -23 9 -23 8 0 15 4 15 9 0 13 -16 22 -24 14z"/>
<path d="M989 2222 c-6 -17 -17 -33 -24 -36 -15 -5 -40 14 -47 36 -6 17 -28 0
-28 -22 0 -23 36 -50 68 -50 31 0 74 44 70 72 -5 33 -27 33 -39 0z"/>
<path d="M2137 2859 c-41 -24 -47 -58 -44 -247 2 -166 4 -183 23 -209 15 -20
31 -29 58 -31 83 -7 106 48 106 256 0 137 -13 202 -45 226 -23 18 -72 20 -98
5z m76 -62 c11 -43 8 -327 -3 -348 -7 -13 -19 -19 -33 -17 -22 3 -22 6 -25
188 -2 161 0 186 14 197 21 15 41 7 47 -20z m-96 -234 c-2 -37 -3 -9 -3 62 0
72 1 102 3 68 2 -34 2 -93 0 -130z m10 -115 c-3 -8 -6 -5 -6 6 -1 11 2 17 5
13 3 -3 4 -12 1 -19z m114 -5 c-12 -20 -14 -14 -5 12 4 9 9 14 11 11 3 -2 0
-13 -6 -23z m-11 -27 c0 -3 -4 -8 -10 -11 -5 -3 -10 -1 -10 4 0 6 5 11 10 11
6 0 10 -2 10 -4z m-33 -22 c-3 -3 -12 -4 -19 -1 -8 3 -5 6 6 6 11 1 17 -2 13
-5z"/>
<path d="M2403 2846 l-28 -24 -4 -160 c-3 -171 8 -256 37 -278 9 -7 32 -14 50
-14 84 0 97 34 97 255 0 175 -6 203 -44 232 -27 21 -77 15 -108 -11z m91 -64
c8 -48 8 -266 -1 -315 -5 -34 -9 -38 -32 -35 l-26 3 -3 185 c-2 161 0 186 14
197 24 18 41 6 48 -35z m34 -93 l-3 -94 -5 102 c-3 56 -1 99 3 94 4 -4 6 -50
5 -102z m-131 -146 c-2 -21 -4 -4 -4 37 0 41 2 58 4 38 2 -21 2 -55 0 -75z
m123 -100 c-11 -17 -11 -17 -6 0 3 10 7 44 8 75 l2 57 3 -57 c2 -33 -1 -66 -7
-75z m-92 -38 c-3 -3 -9 2 -12 12 -6 14 -5 15 5 6 7 -7 10 -15 7 -18z m82 5
c0 -5 -5 -10 -11 -10 -5 0 -7 5 -4 10 3 6 8 10 11 10 2 0 4 -4 4 -10z m-33
-16 c-3 -3 -12 -4 -19 -1 -8 3 -5 6 6 6 11 1 17 -2 13 -5z"/>
<path d="M3118 2859 c-25 -14 -40 -45 -45 -96 -6 -62 12 -107 60 -148 50 -43
66 -70 67 -110 0 -93 -55 -115 -67 -26 -5 37 -8 41 -34 41 -26 0 -28 -3 -24
-31 11 -91 32 -119 90 -119 75 0 102 61 87 199 -1 8 -29 40 -62 72 -58 55 -60
59 -60 107 0 87 49 107 64 27 6 -31 11 -35 36 -35 17 0 30 1 30 3 0 26 -35
109 -50 117 -24 13 -70 12 -92 -1z m-11 -111 c-2 -13 -4 -5 -4 17 -1 22 1 32
4 23 2 -10 2 -28 0 -40z m123 -297 c0 -20 -29 -56 -37 -47 -3 3 2 12 11 21 9
9 16 23 16 31 0 8 2 14 5 14 3 0 5 -9 5 -19z m-53 -57 c-3 -3 -12 -4 -19 -1
-8 3 -5 6 6 6 11 1 17 -2 13 -5z"/>
<path d="M3387 2859 c-39 -23 -47 -61 -47 -233 0 -225 19 -270 105 -254 23 5
25 2 25 -33 0 -35 3 -39 25 -39 l25 0 0 233 c0 129 -5 249 -10 269 -17 59 -74
85 -123 57z m81 -217 c4 -174 -4 -215 -40 -210 -32 4 -38 42 -35 216 2 139 4
155 22 168 17 12 21 12 35 -1 12 -13 16 -47 18 -173z m28 -239 l2 -47 -19 25
c-21 27 -24 39 -9 39 6 0 10 10 10 22 0 41 13 8 16 -39z"/>
<path d="M1817 2618 l2 -241 73 2 c40 1 78 7 85 13 37 30 43 189 9 227 -12 14
-14 24 -6 52 6 18 10 58 10 87 0 43 -5 58 -25 77 -20 21 -34 25 -87 25 l-63 0
2 -242z m111 190 c16 -16 15 -120 -1 -142 -7 -10 -21 -17 -31 -15 -16 3 -18
15 -18 82 1 42 1 79 2 82 0 10 36 5 48 -7z m-81 -20 c-3 -8 -6 -5 -6 6 -1 11
2 17 5 13 3 -3 4 -12 1 -19z m0 -65 c-3 -10 -5 -4 -5 12 0 17 2 24 5 18 2 -7
2 -21 0 -30z m120 5 c-3 -8 -6 -5 -6 6 -1 11 2 17 5 13 3 -3 4 -12 1 -19z
m-104 -86 c7 -9 7 -16 -1 -24 -7 -7 -12 -45 -12 -95 0 -70 3 -86 20 -103 20
-20 20 -20 -4 -20 l-24 0 0 153 c0 83 2 141 5 127 3 -14 10 -31 16 -38z m97
-22 c0 -5 -2 -10 -4 -10 -3 0 -8 5 -11 10 -3 6 -1 10 4 10 6 0 11 -4 11 -10z
m-15 -31 c4 -12 9 -43 10 -69 4 -59 -16 -93 -52 -88 -24 3 -24 6 -26 91 l-2
87 32 0 c24 0 33 -5 38 -21z"/>
<path d="M2650 2617 l0 -243 28 1 27 0 5 110 5 110 30 -111 29 -111 31 2 c20
2 29 8 26 17 -2 7 -19 64 -37 126 l-33 113 30 97 c17 53 33 105 36 115 4 13
-1 17 -24 17 -28 0 -30 -4 -52 -77 -36 -125 -40 -127 -40 -20 l-1 97 -30 0
-30 0 0 -243z m37 171 c-3 -8 -6 -5 -6 6 -1 11 2 17 5 13 3 -3 4 -12 1 -19z
m19 -125 c8 -3 20 -1 27 5 9 8 12 -1 12 -38 0 -37 -3 -46 -12 -38 -7 6 -20 8
-28 4 -12 -4 -15 -26 -17 -103 l-2 -98 -5 110 c-6 116 0 306 7 212 2 -30 8
-50 18 -54z m51 45 c-3 -8 -6 -5 -6 6 -1 11 2 17 5 13 3 -3 4 -12 1 -19z m32
-268 c0 -9 -4 -8 -9 5 -5 11 -9 27 -9 35 0 9 4 8 9 -5 5 -11 9 -27 9 -35z"/>
<path d="M3622 2646 c3 -199 4 -217 24 -243 28 -38 93 -44 122 -13 27 30 32
68 32 283 l0 187 -30 0 -30 0 -2 -212 -3 -213 -25 0 c-30 0 -27 -19 -29 228
l-1 197 -31 0 -31 0 4 -214z m25 142 c-3 -8 -6 -5 -6 6 -1 11 2 17 5 13 3 -3
4 -12 1 -19z m130 0 c-3 -8 -6 -5 -6 6 -1 11 2 17 5 13 3 -3 4 -12 1 -19z
m-126 -159 c-1 -67 -3 -125 -6 -127 -3 -3 -5 55 -5 128 0 73 3 131 6 128 3 -4
5 -61 5 -129z m126 109 c-3 -8 -6 -5 -6 6 -1 11 2 17 5 13 3 -3 4 -12 1 -19z
m0 -40 c-3 -8 -6 -5 -6 6 -1 11 2 17 5 13 3 -3 4 -12 1 -19z m0 -50 c-3 -7 -5
-2 -5 12 0 14 2 19 5 13 2 -7 2 -19 0 -25z m0 -85 c-3 -10 -5 -2 -5 17 0 19 2
27 5 18 2 -10 2 -26 0 -35z m0 -70 c-3 -10 -5 -2 -5 17 0 19 2 27 5 18 2 -10
2 -26 0 -35z m-7 -48 c0 -21 -41 -55 -64 -54 -20 1 -20 1 -1 6 26 7 55 33 55
50 0 7 2 13 5 13 3 0 5 -7 5 -15z"/>
<path d="M3900 2618 l0 -243 30 0 30 0 0 243 0 242 -30 0 -30 0 0 -242z m37
-140 c-2 -13 -4 -5 -4 17 -1 22 1 32 4 23 2 -10 2 -28 0 -40z"/>
<path d="M4062 2618 l3 -242 65 3 c77 3 95 16 104 76 8 52 9 298 1 340 -9 48
-38 65 -111 65 l-64 0 2 -242z m40 192 c-2 -16 -6 -30 -8 -30 -2 0 -4 14 -4
30 0 17 4 30 8 30 5 0 7 -13 4 -30z m79 -20 c11 -39 10 -306 -1 -334 -7 -19
-17 -26 -35 -26 l-25 0 0 196 0 195 27 -3 c19 -2 29 -10 34 -28z m36 -127 c-2
-21 -4 -4 -4 37 0 41 2 58 4 38 2 -21 2 -55 0 -75z m0 -90 c-3 -10 -5 -2 -5
17 0 19 2 27 5 18 2 -10 2 -26 0 -35z m0 -85 c-2 -13 -4 -3 -4 22 0 25 2 35 4
23 2 -13 2 -33 0 -45z m-89 -81 c10 -3 5 -5 -10 -6 -25 -1 -28 2 -27 32 l1 32
9 -27 c6 -15 18 -29 27 -31z m73 16 c-12 -20 -14 -14 -5 12 4 9 9 14 11 11 3
-2 0 -13 -6 -23z"/>
<path d="M1830 2069 c-25 -3 -35 -7 -22 -7 21 -2 22 -7 22 -72 0 -40 4 -70 10
-70 6 0 10 30 10 69 0 65 2 70 23 73 12 2 18 5 12 8 -5 3 -30 3 -55 -1z"/>
<path d="M2122 2072 l-33 -3 3 -72 3 -72 33 -3 c18 -2 32 1 32 7 0 6 -12 11
-27 11 -23 0 -28 4 -28 25 0 19 5 25 23 25 12 0 22 5 22 10 0 6 -11 10 -24 10
-19 0 -22 4 -19 24 4 19 12 26 37 28 17 2 27 5 21 8 -5 3 -25 4 -43 2z"/>
<path d="M2551 2066 c-7 -8 -11 -38 -9 -72 4 -67 21 -85 62 -66 24 11 26 17
26 71 0 49 -4 62 -19 71 -27 14 -46 13 -60 -4z m57 -18 c14 -14 16 -76 3 -96
-4 -8 -19 -12 -32 -10 -21 3 -24 9 -27 47 -2 24 -1 50 2 57 7 17 38 18 54 2z"/>
<path d="M3233 2070 c-20 -8 -23 -16 -23 -70 0 -55 2 -61 26 -72 39 -18 58 0
65 63 6 46 4 57 -13 72 -23 19 -24 19 -55 7z m52 -70 c0 -52 -1 -55 -27 -58
-24 -3 -28 1 -34 32 -3 20 -3 47 0 62 5 20 12 25 34 22 26 -3 27 -6 27 -58z"/>
<path d="M3748 2069 c-14 -8 -18 -23 -18 -67 0 -62 11 -82 46 -82 30 0 42 17
48 73 5 39 2 51 -14 67 -22 22 -37 24 -62 9z m57 -69 c0 -54 0 -55 -30 -55
-28 0 -30 3 -33 44 -4 60 2 73 35 69 27 -3 28 -5 28 -58z"/>
<path d="M3897 2062 c-24 -26 -23 -104 1 -125 43 -39 82 -9 82 63 0 39 -4 52
-22 64 -29 21 -41 20 -61 -2z m61 -65 l3 -58 -28 3 c-25 3 -28 7 -31 47 -4 57
3 73 30 69 20 -3 23 -10 26 -61z"/>
<path d="M4198 2069 c-29 -16 -21 -48 17 -70 42 -25 48 -59 11 -59 -13 0 -26
6 -29 13 -2 6 -8 9 -12 5 -11 -11 14 -38 36 -38 21 0 49 26 49 46 0 7 -18 25
-41 39 -22 15 -39 31 -36 38 5 17 38 21 48 6 4 -7 12 -10 16 -5 4 4 -1 14 -11
22 -23 16 -25 17 -48 3z"/>
<path d="M1940 1994 c0 -41 4 -73 8 -70 5 3 7 19 4 36 -4 28 -2 30 27 30 29 0
31 -2 31 -35 0 -19 5 -35 10 -35 6 0 10 32 10 75 0 43 -4 75 -10 75 -5 0 -10
-13 -10 -30 0 -27 -3 -30 -31 -30 -29 0 -31 2 -27 30 3 17 1 30 -4 30 -4 0 -8
-34 -8 -76z"/>
<path d="M2326 2018 c9 -28 20 -63 26 -77 10 -26 10 -26 27 18 19 47 24 46 36
-7 3 -18 11 -30 15 -27 16 10 53 145 40 145 -4 0 -13 -23 -20 -50 -12 -51 -30
-76 -30 -43 0 29 -20 93 -30 93 -4 0 -6 -9 -3 -19 6 -24 -15 -93 -27 -86 -4 3
-13 27 -20 55 -7 27 -16 50 -20 50 -5 0 -2 -23 6 -52z"/>
<path d="M2690 1996 c0 -44 4 -76 10 -76 6 0 10 11 10 25 0 15 6 25 14 25 8 0
17 -11 20 -25 4 -14 11 -25 16 -25 12 0 12 11 0 30 -5 9 -5 19 1 26 6 7 9 30
7 51 -3 36 -5 38 -40 41 l-38 3 0 -75z m65 24 c0 -29 -4 -36 -22 -38 -21 -3
-23 1 -23 38 0 37 2 41 23 38 18 -2 22 -9 22 -38z"/>
<path d="M2835 1998 l1 -73 37 -3 c21 -2 37 1 37 7 0 6 -13 11 -30 11 l-30 0
0 65 c0 36 -4 65 -8 65 -5 0 -8 -33 -7 -72z"/>
<path d="M2960 1995 l0 -75 30 0 c45 0 72 32 69 83 -3 55 -14 67 -60 67 l-39
0 0 -75z m68 56 c9 -5 12 -25 10 -57 -3 -47 -4 -49 -36 -52 l-33 -3 2 60 c2
55 5 61 23 61 12 0 27 -4 34 -9z"/>
<path d="M3370 1994 c0 -46 4 -73 10 -69 5 3 7 19 3 35 -5 27 -3 30 21 30 14
0 26 5 26 10 0 6 -12 10 -26 10 -20 0 -25 4 -22 23 2 15 12 24 33 28 29 6 29
6 -7 8 l-38 1 0 -76z"/>
<path d="M3587 2064 c-4 -4 -7 -36 -7 -71 0 -71 11 -83 59 -67 27 10 39 42 25
72 -3 9 -7 28 -8 42 -1 20 -7 26 -31 28 -17 2 -34 0 -38 -4z m58 -24 c0 -8
-10 -16 -22 -18 -18 -3 -23 2 -23 18 0 16 5 21 23 18 12 -2 22 -10 22 -18z m5
-49 c14 -27 2 -51 -26 -51 -21 0 -24 5 -24 35 0 28 4 35 20 35 10 0 24 -9 30
-19z"/>
<path d="M4040 1993 c0 -44 4 -73 9 -67 12 13 21 84 11 84 -5 0 -7 14 -3 30 3
19 1 30 -6 30 -7 0 -11 -27 -11 -77z"/>
<path d="M4087 2044 c-13 -17 -15 -29 -9 -37 5 -7 15 -29 22 -50 6 -20 15 -35
20 -32 5 3 0 25 -11 50 -19 42 -19 46 -3 70 21 33 5 32 -19 -1z"/>
<path d="M190 1653 l0 -28 2038 2 2037 2 3 25 3 26 -2040 0 -2041 0 0 -27z"/>
</g>
</svg>
