<?xml version="1.0" encoding="utf-8"?>
<!-- Generator: Adobe Illustrator 16.0.0, SVG Export Plug-In . SVG Version: 6.00 Build 0)  -->
<!DOCTYPE svg PUBLIC "-//W3C//DTD SVG 1.1//EN" "http://www.w3.org/Graphics/SVG/1.1/DTD/svg11.dtd">
<svg version="1.1" id="Layer_1" xmlns="http://www.w3.org/2000/svg" xmlns:xlink="http://www.w3.org/1999/xlink" x="0px" y="0px"
	 width="411.024px" height="325.984px" viewBox="0 0 411.024 325.984" enable-background="new 0 0 411.024 325.984"
	 xml:space="preserve">
<g>
	<path fill-rule="evenodd" clip-rule="evenodd" fill="#004D86" d="M290.542,284.724c-4.585-0.524-9.171-1.474-13.75,0.033
		c-6.409,0.973-11.869,4.456-17.729,6.843c-15.685,6.389-31.594,5.764-47.588,1.93c-7.417-1.777-14.392-4.873-20.128-10.093
		c-1.963-1.785-3.375-0.316-4.167,0.651c-9.146,11.188-21.6,12.648-34.751,12.014c-13.311-0.641-26.214-3.854-39.193-6.526
		c-16.31-3.358-32.642-5.284-48.69,0.815c-7.042,2.676-13.994,5.972-17.677,13.344c-1.004,2.011-2.74,3.074-4.877,2.509
		c-2.326-0.614-2.616-2.845-2.609-4.845c0.029-8.386,3.57-15.487,8.335-22.106c0.788-1.095,1.62-2.156,2.744-3.649
		c-6.503-1.046-12.894-0.961-18.906-3.031c-12.617-4.344-21.803-12.074-25.37-25.429c-0.678-0.914-0.798-2.117-1.552-2.991
		c0.042-1.363-0.43-3.14,0.253-3.985c0.875-1.086,1.333-2.968,3.023-3.123c1.723-0.158,2.3,1.403,2.661,2.681
		c2.738,9.686,9.639,14.04,19.125,15.376c9.748,1.374,19.401,1.345,29.961-1.369c-10.834-1.188-19.993-4.311-28.391-9.709
		c-3.223-2.072-6.116-4.595-8.353-7.493c-6.521-8.452-3.374-18.578,6.945-23.396c0.834,2.513-0.396,4.816-0.87,7.096
		c-1.406,6.772,0.51,9.571,8.14,12.293c12.963,4.622,24.786,2.062,35.785-5.803c2.202-1.574,4.756-2.658,7.203-3.999
		c0.059-1.047-0.889-1.38-1.614-1.791c-7.857-4.452-14.44-10.177-19.53-17.782c-7.554-11.286-11.451-23.486-8.56-36.875
		c2.881-13.34,9.428-24.649,20.37-33.536c13.151-10.68,29.032-14.214,44.609-18.647c13.739-3.91,27.481-7.619,40.082-14.684
		c10.081-5.65,17.952-13.354,19.954-24.834c1.032-5.92-1.963-12.13-6.734-16.481c-12.333-11.244-26.858-12.727-42.641-9.709
		c-16.199,3.096-32.569,5.539-48.987,1.451c-10.142-2.526-19.477-6.57-25.684-15.763c-1.222-1.809-2.06-3.656-1.088-5.308
		c1.075-1.827,3.148-0.604,4.542,0.061c10.343,4.938,20.631,2.846,30.657-0.607c16.05-5.529,32.35-7.147,49.101-4.672
		c1.404,1.251,3.121,0.381,4.665,0.689c1.047-0.193,2.037-0.176,2.778,0.755c9.66,3.453,18.847,7.624,26.51,14.805
		c2.658,2.491,4.964,5.388,6.847,8.165c6.833,10.08,11.875,21.2,7.547,33.661c-3.116,8.974-9.517,15.861-17.555,21.044
		c-0.9,0.581-1.838,1.031-2.323,2.046c-11.447,9.535-25.7,12.261-39.457,16.056c-15.483,4.271-31.07,8.242-44.538,17.492
		c-14.55,9.995-20.439,23.961-18.759,41.479c1.215,12.666,7.161,22.349,17.923,30.679c-0.198-7.082,2.516-12.143,7.067-16.288
		c0.902-0.821,1.741-1.714,2.731-2.437c4.737-3.455,7.548-2.786,10.22,2.394c1.639,3.179,1.588,6.816,2.905,10.59
		c3.678-4.367,7.278-8.481,12.375-10.779c3.046-1.372,6.065-2.33,8.809,0.619c1.713,3.867-1.421,7.847,0.277,11.726
		c-0.035-3.845,0.216-7.68,0.12-11.524c0.133-5.842,1.682-11.258,6.029-15.29c6.831-6.335,9.978-13.842,9.249-23.209
		c-0.623-8.003,4.008-14.286,8.22-20.353c6.667-9.603,16.076-16.518,25.087-23.758c0.603-0.484,1.438-0.457,2.158-0.697
		c6.283-3.643,11.796-8.36,17.562-12.714c8.062-6.085,16.052-12.281,23.833-18.72c2.975-2.463,5.925-5.367,7.786-8.688
		c8.28-14.765,21.075-23.265,36.87-28.097c11.74-3.59,23.689-6.855,33.516-14.761c3.508-2.822,6.68-6.062,10.033-9.079
		c2.928-2.633,6.242-4.584,9.785-6.379c8.958-4.538,17.691,0.838,21.656,9.129c2.852,5.96,5.246,12.125,6.713,18.698
		c2.396,10.743,7.244,20.658,11.415,30.805c2.003,4.875,3.493,10.089,3.819,15.484c0.495,8.187-4.465,13.351-10.389,17.549
		c-4.535,3.215-9.732,5.426-14.851,7.737c-4.665,2.107-7.86,6.067-8.538,11.512c-0.473,3.786-0.506,7.689-1.486,11.338
		c-3.59,13.354-8.396,26.157-15.814,38.035c-4.475,7.168-9.259,14.03-14.341,20.746c-5.474,7.236-11.954,13.499-18.288,19.938
		c-4.86,4.942-9.404,10.148-14.973,14.385c-3.199,2.435-6.844,3.9-10.279,5.812c-2.07,1.15-4.268,2.301-3.854,5.004
		c0.463,3.013,3.151,3.438,5.629,3.659c3.852,0.345,6.988-1.206,10.062-3.499c5.18-3.863,9.826-8.016,11.514-14.557
		c0.679-2.63,1.836-4.987,3.238-7.312c2.457-4.074,5.309-4.303,7.809-0.183c4.789,7.893,4.97,16.069,0.916,24.328
		c-0.756,1.541-1.895,2.74,0.863,3.638c8.373,2.723,16.561,6.08,25.037,8.402c5.588,1.532,11.464,1.679,16.185-3.202
		c2.216-2.29,2.194-4.296,0.409-6.654c-0.812-1.075-1.693-2.156-2.219-3.375c-0.617-1.435-2.186-3.069-0.575-4.578
		c1.795-1.684,3.87-0.614,5.421,0.542c6.632,4.948,8.709,11.692,4.651,19.617c0.583,2.788,2.451,1.212,3.877,1.141
		c13.577-1.545,26.63-13.101,23.692-27.08c-1.271-6.049-4.226-11.635-7.803-16.634c-6.025-8.42-13.049-16.073-19.078-24.533
		c-4.744-6.657-8.236-13.795-9.128-21.724c-1.304-11.611,2.468-21.956,12.683-28.149c10.265-6.223,21.184-5.142,31.848,0.315
		c7.286,3.729,11.652,10.342,16.844,16.102c4.313,4.785,9.238,7.62,15.649,8.302c4.345,0.463,4.614,1.347,1.81,4.565
		c-12.303,14.123-25.891,14.285-41.24,5.682c-4.678-2.622-8.088-6.74-12.1-10.148c-0.697-0.592-1.233-1.403-1.986-1.895
		c-3.178-2.073-6.527-4.712-10.407-2.321c-3.906,2.407-4.226,6.543-3.188,10.63c2.152,8.467,7.037,15.435,12.113,22.406
		c6.623,9.097,14.609,17.295,19.663,27.425c4.321,8.66,5.386,18.072,0.788,26.931c-4.341,8.364-12.398,12.483-21.101,15.181
		c-7.729,2.396-15.716,3.277-24.083,3.215c8.628,7.522,28.211,11.062,35.226,3.514c0.478-0.514,1.313-0.686,1.96-1.057
		c2.276-1.307,4.841-4.233,7.146-1.226c2.261,2.95,1.214,6.609-0.776,9.766c-6.689,10.602-17.147,14.26-28.816,15.766
		c-13.925,1.798-27.305-0.05-40.121-5.83 M221.605,255.187c0.932-4.948,2.449-9.348,6.236-13.234
		c7.714-7.92,17.812-12.546,25.928-19.803c6.826-6.104,11.52-13.193,9.613-23.055c-2.479-12.812-11.221-21.036-22.037-25.938
		c-30.441-13.797-61.571-15.6-92.228-0.538c-10.308,5.063-17.81,13.174-16.721,26.181c0.305,3.644,0.368,7.312,0.437,10.972
		c0.065,3.461-0.747,6.869-3.011,9.417c-8.517,9.584-18.981,14.021-31.807,10.593c-9.555-2.554-17.766-0.423-25.802,5.166
		c-7.713,5.364-16.569,7.509-26.048,5.616c-3.991-0.797-7.952-1.75-11.926-2.632c11.403,8.349,24.234,12.094,38.083,10.175
		c11.736-1.627,22.76-6.59,34.415-8.938c10.403-2.096,20.814-3.575,31.302-1.166c2.387,0.548,6.8,0.531,6.377,3.764
		c-0.392,2.997-4.455,1.636-6.78,1.45c-20.347-1.617-39.705,2.462-58.646,9.503c-12.779,4.75-25.879,8.028-39.69,7.638
		c-6.06-0.171-11.959-1.577-19.085-2.479c3.686,3.994,7.226,6.139,11.288,7.402c10.049,3.129,20.197,2.464,30.338,0.519
		c13.503-2.59,26.993-4.911,40.864-3.342c8.224,0.931,16.047,3.578,24.145,5.021c8.523,1.519,16.641,0.484,24.603-2.778
		c7.104-2.91,9.292-9.421,11.901-15.676c0.281-0.674,0.52-1.645,1.4-1.494c1.167,0.199,1.766,1.25,1.901,2.342
		c0.596,4.795-0.417,9.409-3.828,12.736c-9.167,8.949-20.343,12.396-33.006,10.452c-5.563-0.853-11.087-2.063-16.555-3.415
		c-20.2-4.994-39.364-3.514-56.337,9.584c-4.204,3.244-8.667,7.053-8.972,14.152c11.117-11.408,24.414-14.769,39.124-14.166
		c13.632,0.56,26.813,3.832,40.108,6.439c12.141,2.383,24.299,4.79,36.744,2.692c6.802-1.146,13.173-2.764,17.181-9.627
		c2.494-4.269,1.117-8.151,1.065-12.248c-0.623-0.95-0.77-2.146-1.555-3.012c-1.236-5.253,0.691-9.492,4.385-13.041
		c1.852-1.78,4.732-3.011,6.508-1.174c2.084,2.156-1.07,3.609-2.357,5.009c-3.137,3.408-4.298,9.037-2.135,12.906
		c4.749,8.494,11.841,14.725,20.771,18.087c18.623,7.014,37.303,5.533,55.122-2.706c13.175-6.091,25.802-6.928,39.109-0.899
		c15.293,6.927,30.797,6.05,46.202,0.027c0.438-1.729-1.248-0.888-1.766-1.461c-1.964-0.218-3.951-0.314-5.889-0.673
		c-10.969-2.031-21.076-6.691-31.504-10.382c-13.792-4.882-27.612-7.273-41.816-1.281c-5.842,2.465-11.793,4.722-18.057,6.093
		c-9.744,2.134-26.527-2.999-27.566-14.066C220.57,258.333,220.591,256.763,221.605,255.187z M150.208,159.957
		c0.159,1.829,0.544,2.81,2.82,1.772c2.885-1.314,5.926-2.511,9.024-3.094c32.147-6.054,63.431-5.224,91.779,13.596
		c8.897,5.908,16.013,13.804,17.631,25.186c0.265,1.856,0.741,3.683,1.248,6.143c9.142-9.524,17.202-18.971,23.851-29.563
		c3.444-5.488,6.389-11.188,8.889-17.221c4.573-11.028,8.854-22.053,9.665-34.102c0.088-1.297,0.567-3.045-1.002-3.697
		c-1.583-0.66-2.929,0.451-3.964,1.604c-2.312,2.576-4.493,5.273-6.842,7.814c-1.135,1.227-2.623,2.561-4.365,1.375
		c-1.905-1.299-0.717-3.356,0.023-4.543c3.385-5.424,7.705-9.686,13.812-12.418c8.31-3.719,17.274-5.855,25.127-10.646
		c10.549-6.437,13.427-10.829,10.25-22.65c-0.909-3.388-2.875-6.261-4.029-9.472c-3.219-8.95-6.42-17.925-9.079-27.051
		c-1.757-6.029-4.749-11.397-7.694-16.772c-3.877-7.075-10.716-8.681-16.354-4.155c-2.443,1.961-4.739,4.256-6.588,6.777
		c-8.113,11.061-18.945,19.101-30.292,26.218c-12.677,7.951-25.987,14.917-39.192,21.994c-18.113,9.708-33.997,22.467-49.486,35.741
		c-7.785,6.671-15.903,12.979-22.966,20.498c-5.743,6.112-11.18,12.274-12.331,21.021
		C149.099,156.205,149.042,158.088,150.208,159.957z M115.61,33.354c-0.687-0.566-1.51-1.03-2.031-1.721
		c-0.942-1.25-1.24-2.849-3.648-2.365c-2.529,0.507-1.53,2.126-1.729,3.424c-0.242,1.576-1.171,2.496-2.704,2.629
		c-1.502,0.13-3.568,0.397-4.06-1.238c-0.95-3.166-2.866-2.189-4.839-1.696c-2.502,0.625-5.019,1.199-7.51,1.863
		c-6.898,1.842-14.03,2.056-21.676,2.784c2.437,3.354,5.682,4.563,8.673,5.355c14.969,3.958,29.993,4.478,44.995-0.17
		c8.097-2.509,16.183-5.582,24.905-2.755c0.53,0.172,1.305,0.151,1.759-0.123c0.849-0.511,2.249-0.117,2.562-1.534
		c0.311-1.408-0.793-1.654-1.631-2.306c-7.005-5.443-15.432-5.829-23.699-6.979c-2.953-0.411-4.859,0.249-5.964,3.011
		 M360.201,148.903c-0.902-2.223,1.001-3.524,1.9-5.134c-7.464-3.28-18.633-2.041-24.906,2.719
		c-1.084,0.822-2.219,1.831-2.014,3.369c0.236,1.774,1.783,1.817,3.156,1.969c7.254,0.797,13.766,3.019,19.121,8.416
		c3.249,3.277,7.143,5.94,10.873,8.709c8.215,6.098,17.18,7.65,23.622,0.001c-4.655-2.81-8.896-6.107-12.381-10.355
		c-0.695-0.848-1.225-3.107-2.985-1.271c-2.567,2.678-4.283,1.889-6.638,0.199c-0.199-0.219-0.162-0.206-0.356-0.435
		c-0.104-0.121,0,0-0.234-0.531c-0.324-0.735-0.203-0.359-0.219-0.641c-0.01-0.167,0.029-0.577,0.016-0.828
		c-0.021-0.392,0.006-0.765,0.088-0.881c0.318-0.807,1.068-1.228,1.221-1.279c3.533-1.208,2.225-2.178,0-3.389
		c-0.895-0.488-1.566-1.39-2.375-2.136c-1.874,3.984-2.467,4.235-7.005,3.068 M302.295,258.228
		c-1.958-0.811-3.954-1.541-5.868-2.448c-10.424-4.941-21.018-5.522-31.955-1.733c-11.333,3.925-22.719,7.004-33.233-2.29
		c-4.113,11.316,4.644,15.161,12.811,15.378c4.788,0.126,9.376-1.203,13.681-3.196c13.297-6.154,26.783-10.326,41.449-5.001
		c0.41,0.149,0.91,0.05,1.367,0.066C301.386,259.325,302.317,259.85,302.295,258.228z M269.932,237.417
		c-8.103,8.473-15.048,13.913-28.429,9.168c-1.463-0.519-3.658-1.622-4.386,0.445c-0.802,2.277,1.218,3.174,3.238,3.948
		c10.227,3.922,19.532,1.263,28.046-4.395c6.172-4.101,10.796-9.604,8.884-19.021C275.521,232.092,272.556,234.675,269.932,237.417z
		 M108.421,220.714c-8.66-1.605-14.732-6.095-16.769-15.089c-0.41-1.808-0.032-4.985-1.93-4.936
		c-2.444,0.065-2.729,3.245-3.214,5.433c-0.222,0.995,0.008,2.096,0.055,3.146c0.319,7.047,11.186,16.488,18.505,16.176
		c3.317-0.143,6.703-0.295,8.954-3.893C111.952,221.246,110.176,221.04,108.421,220.714z M268.173,49.277
		c-13.078,2.179-24.138,7.868-32.191,18.683C247.522,63.048,258.319,56.967,268.173,49.277z M115.384,200.285
		c-3.223-0.398-4.927,2.196-6.565,4.018c-2.048,2.277-3.04,5.798-0.931,8.395c2.117,2.607,5.709,2.403,8.871,1.842
		c1.829-0.325,2.197-2.166,0.934-3.039c-3.347-2.312-2.763-5.294-2.134-8.433C116.165,202.098,116.21,201.164,115.384,200.285z
		 M122.022,34.24c-0.594-1.284-2.745-0.968-2.843-2.764c-1.134,0.607-2.269,1.214-3.403,1.82c-0.939,1.772-1.955,3.855,0.038,5.242
		c1.954,1.358,4.418,2.096,6.274-0.574C122.987,36.707,123.008,35.465,122.022,34.24z M359.992,149.112
		c-1.014-0.071-2.033-0.102-3.042-0.22c-1.958-0.228-3.187,0.638-3.845,2.437c-0.644,1.753,0.188,3.108,1.559,3.841
		c1.494,0.798,3.244,0.756,4.712-0.35c1.368-1.032,1.18-2.691,1.501-4.138C360.9,149.979,360.643,149.434,359.992,149.112z
		 M369.472,156.464c-1.188,0.053-2.379,0.112-3.567,0.156c-1.831,0.067-3.277,0.7-3.666,2.684c-0.283,1.442-0.005,2.873,1.384,3.537
		c1.669,0.798,3.543,1.136,5.118-0.251c1.634-1.439,0.86-3.364,0.765-5.132C369.494,157.127,369.484,156.796,369.472,156.464z
		 M150.208,159.957c-0.022-1.882-0.044-3.764-0.065-5.646C147.56,156.223,147.611,158.104,150.208,159.957z M350.404,280.327
		c-1.33-0.791-2.646-0.223-3.941-0.119c0.589,0.487,1.178,0.975,1.766,1.461C349.058,281.441,349.989,281.378,350.404,280.327z
		 M247.273,208.331c1.939-2.819,2.156-5.96,0.664-8.487c-1.262-2.137-3.663-3.838-6.916-3.386c-3.543,0.493-4.817,2.79-5.656,5.716
		c-0.292,1.021-0.468,2.077-0.762,3.1c-0.972,3.39-6.39,7.297-9.77,6.791c-3.277-0.488-5.076-2.608-6.195-5.783
		c-1.57-4.464-5.432-6.564-8.25-5.001c-4.378,2.431-5.143,8.739-2.147,12.921c4.726,6.596,11.772,6.785,18.347,7.597
		C235.994,221.686,239.926,219.006,247.273,208.331z M171.076,176.751c0.236-2.779-1.937-3.618-4.166-3.804
		c-2.123-0.176-3.534,1.112-3.712,3.204c-0.207,2.417,1.295,3.562,3.119,3.775C168.991,179.911,170.872,179.142,171.076,176.751z
		 M174.167,189.205c-0.742-1.336-1.931-2.012-3.388-1.744c-1.435,0.262-3.134,0.377-3.843,1.959
		c-0.581,1.297-0.614,2.816,0.594,3.767c1.293,1.018,2.846,1.672,4.599,1.053c1.057-0.373,1.863-0.999,2.178-2.128
		C174.887,191.112,174.871,190.141,174.167,189.205z M205.745,168.341c-1.792-0.12-3.221,0.999-3.249,3.07
		c-0.03,2.343,1.19,3.892,3.541,3.849c1.973-0.037,4.084-0.483,3.965-3.17C210.117,168.971,207.821,168.48,205.745,168.341z
		 M324.582,49.809c-0.398-1.115-0.527-2.708-1.984-2.7c-1.525,0.008-1.5,1.633-1.81,2.761c-1.753,6.405-3.087,12.872-3.705,19.513
		c-0.55,5.916-1.206,12.102-3.913,17.287c-2.541,4.87-2.703,10.135-4.501,15.053c-0.739,2.021,0.458,3.123,2.847,2.369
		c1.646-0.519,2.424-1.632,3.059-3.071c6.652-15.098,9.402-31.147,11.584-47.337C325.142,52.591,325.626,50.89,324.582,49.809z
		 M203.276,121.986c-0.246-2.579-2.522-3.15-4.339-2.99c-1.89,0.166-4.638,0.579-4.708,3.201c-0.081,2.999,2.966,2.784,4.745,3.786
		C201.041,125.114,203.56,124.956,203.276,121.986z M262.134,83.909c0.08,2.538,2.083,3.263,4.128,3.316
		c2.367,0.061,4.267-0.972,4.067-3.735c-0.168-2.331-1.67-3.451-4.39-3.344C263.986,80.374,262.046,81.171,262.134,83.909z
		 M208.096,138.665c-2.436,0.054-4.305,1.07-4.332,3.665c-0.022,2.297,1.404,3.627,3.874,3.424c2.436-0.2,4.01-1.312,4.096-4.231
		C211.599,139.479,210.238,138.618,208.096,138.665z M224.084,100.602c0.081,2.817,1.878,4.126,4.477,4.06
		c2.151-0.054,3.25-1.54,3.14-3.675c-0.135-2.608-1.721-3.716-4.221-3.69C225.228,97.254,224.021,98.389,224.084,100.602z
		 M110.789,39.691c-0.107-2.329-2.243-3.251-4.07-3.296c-2-0.05-4.269,0.603-4.261,3.427c0.007,2.607,2.424,2.589,4.254,3.905
		C108.013,42.202,110.919,42.512,110.789,39.691z M94.644,36.375c-2.343-0.377-3.759,1.159-3.774,3.466
		c-0.014,2.117,1.438,3.555,3.468,3.347c1.808-0.186,4.021-0.625,4.18-3.981C98.67,37.159,96.451,36.666,94.644,36.375z
		 M379.925,166.013c-0.02-2.521-1.721-3.352-3.954-3.375c-2.403-0.025-3.778,1.216-3.685,3.608c0.087,2.21,1.584,3.119,3.671,3.107
		C378.224,169.334,379.943,168.572,379.925,166.013z"/>
</g>
</svg>
