<?xml version="1.0" encoding="utf-8"?>
<!-- Generator: Adobe Illustrator 16.0.0, SVG Export Plug-In . SVG Version: 6.00 Build 0)  -->
<!DOCTYPE svg PUBLIC "-//W3C//DTD SVG 1.1//EN" "http://www.w3.org/Graphics/SVG/1.1/DTD/svg11.dtd">
<svg version="1.1" id="Layer_1" xmlns="http://www.w3.org/2000/svg" xmlns:xlink="http://www.w3.org/1999/xlink" x="0px" y="0px"
	 width="1919.905px" height="354.331px" viewBox="0 0 1919.905 354.331" enable-background="new 0 0 1919.905 354.331"
	 xml:space="preserve">
<g>
	<path fill-rule="evenodd" clip-rule="evenodd" fill="#004D86" d="M748.581,344.764c-1.369-0.051-2.74-0.146-4.111-0.146
		c-133.252-0.007-266.506-0.007-399.76,0.001c-1.371,0-2.741,0.095-4.111,0.146c-1.829-0.051-3.659-0.146-5.488-0.146
		c-108.617-0.008-217.233-0.03-325.849,0.084c-4.063,0.004-5.426-0.847-5.246-5.136c0.366-8.696,0.104-8.707,8.907-8.707
		c99.756,0,199.511,0.001,299.268-0.006c1.829,0,3.659-0.096,5.488-0.147c1.371,0.052,2.741,0.146,4.111,0.147
		c134.477,0.006,268.952,0.006,403.428,0c1.371,0,2.74-0.096,4.109-0.147c1.984,0.052,3.967,0.147,5.949,0.147
		c148.039,0.007,1021.078,0.028,1169.117-0.1c4.494-0.005,5.98,0.865,5.719,5.611c-0.457,8.228-0.125,8.246-8.465,8.246
		c-140.859,0-1006.719-0.001-1147.578,0.007C752.241,344.617,750.411,344.713,748.581,344.764z"/>
	<path fill-rule="evenodd" clip-rule="evenodd" fill="#004D87" d="M1631.735,218.114c-0.924,6.806-1.803,13.615-2.782,20.41
		c-2.635,18.319-13.069,30.358-30.026,37.101c-11.932,0.742-23.83,2.824-35.812,0.368c-22.768-4.672-31.815-14.999-35.121-40.313
		c-1.436-1.887-1.688-4.371-3.152-6.244c-0.666-5.22-1.334-10.438-1.997-15.66c-0.207-8.733-0.414-17.466-0.617-26.199
		c-1.301-6.604-0.541-13.277-0.554-19.911c-0.081-46.643,0.094-93.287-0.195-139.926c-0.04-6.868,1.334-9.807,8.829-9.182
		c8.194,0.682,16.49,0.069,24.736,0.219c1.957,0.032,4.628-1.209,5.592,1.953c-0.236,1.232-0.688,2.466-0.684,3.696
		c0.297,64.486-0.918,128.978,0.911,193.453c0.162,5.671,0.81,11.51,2.432,16.91c2.118,7.054,7.63,10.028,15.132,10.218
		c7.254,0.182,11.402-2.986,13.139-9.72c0.789-3.058,1.264-6.197,1.879-9.3c2.137-4.978,1.712-6.924,3.249-11.901
		c0.191-61.62,0.529-123.24,0.386-184.861c-0.016-7.744,1.668-10.903,9.801-10.024c6.279,0.676,12.721,0.521,19.031,0.024
		c5.982-0.472,7.422,1.701,7.385,7.503c-0.354,55.904-0.415,111.807-0.536,167.709c-0.004,2.516,0.231,5.03,0.357,7.542
		C1631.202,207.232,1633.316,212.832,1631.735,218.114z"/>
	<path fill-rule="evenodd" clip-rule="evenodd" fill="#004D87" d="M976.397,169.023c0,31.792-0.277,63.586,0.195,95.373
		c0.113,7.708-2.185,9.893-9.532,9.268c-7.263-0.616-14.628-0.333-21.932-0.068c-4.656,0.17-6.677-0.93-6.669-6.251
		c0.171-80.471,0.159-160.943,0.025-241.413c-0.008-4.875,1.244-7.227,6.326-6.596c0.627,0.076,1.273-0.012,1.908,0.002
		c9.494,0.222,21.897-3.096,27.688,1.65c6.088,4.987,1.777,17.878,1.899,27.299c0.277,21.615,0.09,43.233,0.09,67.319
		c3.46-7.004,6.396-11.752,8.246-16.893c7.251-20.137,14.062-40.431,21.248-60.592c1.977-5.533,4.827-10.747,7.023-16.207
		c1.131-2.803,3.342-2.541,5.49-2.552c10.479-0.05,20.963-0.022,31.645-0.022c-8.333,23.621-15.277,47.295-25.09,69.709
		c-6.52,14.883-8.747,31.324-17.607,45.22c-2.376,3.723-2.241,8.377,0.061,11.811c5.432,8.113,6.379,17.62,9.32,26.494
		c10.264,30.987,21.702,61.588,30.572,93.041c0.634,2.242,2.281,4.195,4.318,7.815c-12.46,0-23.933,0.01-35.403-0.012
		c-1.817-0.003-2.998-0.962-3.229-2.79c-0.683-5.409-4.677-9.56-5.894-14.594c-4.969-20.567-14.379-39.707-19.182-60.282
		C985.697,186.255,980.297,178.128,976.397,169.023z"/>
	<path fill-rule="evenodd" clip-rule="evenodd" fill="#004D86" d="M1265.223,78.65c-0.851-8.212-1.363-16.478-2.644-24.622
		c-1.191-7.567-5.08-13.2-13.753-12.963c-8.064,0.219-14.273,3.622-15.771,12.183c-2.92,16.686-3.708,33.477-0.707,50.262
		c2.176,12.177,12.184,17.937,21.076,24.159c8.243,5.768,17.499,9.948,25.562,16.197c13.037,10.095,21.724,22.614,23.484,39.155
		c1.952,18.382,1.436,36.753-0.626,55.168c-2.322,20.766-18.364,35.17-38.831,37.373c-9.825,1.058-19.442,1.736-29.382,0.389
		c-20.479-2.779-30.181-16.512-35.757-34.158c-4.144-13.115-3.614-27.021-4.648-40.634c-0.297-3.87,1.383-5.054,4.949-5.016
		c9.224,0.1,18.446,0.186,27.666-0.024c4.586-0.105,4.961,2.444,5.11,6.017c0.44,10.47,0.794,20.94,2.741,31.303
		c1.569,8.36,6.503,11.54,14.68,11.543c8.053,0.001,13.746-2.733,15.1-11.196c2.614-16.386,3.16-32.792,0.159-49.237
		c-2.213-12.132-11.529-18.494-20.301-25.092c-5.478-4.124-11.972-6.866-17.673-10.727c-17.502-11.867-30.946-26.193-32.216-49.124
		c-0.796-14.371-0.513-28.602,0.985-42.835c2.09-19.846,15.66-36.256,37.009-39.484c12.717-1.921,25.335-2.333,37.811,0.852
		c16.335,4.168,24.933,16.402,29.498,31.369c3.23,10.594,3.876,21.86,4.097,33.013c-10.338,2.397-20.817,0.438-31.212,1.031
		C1268.122,83.748,1266.787,81.028,1265.223,78.65z"/>
	<path fill-rule="evenodd" clip-rule="evenodd" fill="#004D87" d="M1728.556,146.834c0.004,39.417-0.144,78.834,0.146,118.248
		c0.045,6.413-1.191,9.383-8.214,8.532c-9.023-1.091-21.158,3.963-26.355-2.062c-4.461-5.175-1.46-16.934-1.464-25.779
		c-0.049-72.159,0.089-144.316-0.2-216.472c-0.028-7.602,1.347-11.109,9.691-10.11c5.953,0.715,12.102,0.577,18.088,0.023
		c6.714-0.621,8.515,1.737,8.462,8.418C1728.396,67.365,1728.556,107.1,1728.556,146.834z"/>
	<path fill-rule="evenodd" clip-rule="evenodd" fill="#004D86" d="M1465.146,133.211c-0.948,13.05-0.842,26.097-0.004,39.146
		c-0.176,42.611-0.651,85.22-0.28,127.826c0.081,9.39-1.839,13.478-11.83,11.949c-7.747-1.186-18.06,3.345-22.867-1.761
		c-4.729-5.024-0.783-15.138-1.167-23.009c-0.105-2.221-0.206-4.483,0.087-6.673c0.666-4.999-1.478-5.681-5.982-5.062
		c-14.888,2.037-29.572,2.614-43.81-4.263c-12.032-5.814-16.737-16.931-20.238-28.012c-3.107-9.831-3.871-20.65-4.18-31.077
		c-1.318-44.516-2.192-89.046-0.272-133.571c0.305-6.97,1.089-13.923,1.65-20.882c3.276-19.962,12.882-38.277,38.294-40.859
		c13.168-1.339,25.88-1.18,38.51,2.304c16.369,4.514,22.497,18.257,26.588,32.449c2.854,9.9,2.85,20.624,4.123,30.981
		c1.293,13.42,0.18,26.87,0.582,40.302C1464.445,126.412,1463.763,129.897,1465.146,133.211z M1389.256,61.776
		c-3.424,54.614-2.858,109.228,0.057,163.839c1.472,1.847,1.658,4.367,3.233,6.16c0.69,4.474,1.857,8.735,5.994,11.349
		c9.938,6.284,24.139,0.549,26.835-10.948c0.935-3.993,1.524-8.114,1.805-12.209c3.111-45.69,1.604-91.426,1.01-137.146
		c-0.119-9.138-0.766-18.332-2.433-27.463c-1.798-9.854-7.43-14.118-16.88-14.375c-9.785-0.267-13.688,3.281-16.336,14.646
		C1390.991,57.435,1390.809,59.972,1389.256,61.776z"/>
	<path fill-rule="evenodd" clip-rule="evenodd" fill="#004D86" d="M547.569,158.993c6.14,24.317,8.239,48.92,3.184,73.614
		c-5.038,24.618-19.503,39.768-44.837,40.719c-21.906,0.821-43.87,0.053-65.801,0.305c-4.872,0.056-5.677-1.863-5.673-6.139
		c0.102-80.749,0.126-161.496-0.044-242.241c-0.008-5.567,2.432-6.02,6.852-5.984c20.024,0.156,40.052,0.067,60.075,0.065
		c28.096,4.777,38.425,19.22,39.921,45.515c1.106,19.401,0.842,38.711-5.596,57.419c-3.997,11.611-3.851,11.589,3.188,22.449
		C541.868,149.394,543.556,154.904,547.569,158.993z M686.807,271.068c6.58-3.115,12.972-7.913,15.762-15.589
		c4.929-13.582,9.87-27.066,10.659-41.806c2.443-45.749,2.114-91.469,0.024-137.217c-0.646-14.143-5.604-26.97-10.603-39.829
		c-1.325-3.417-3.724-6.279-6.859-8.82c-15.965-12.916-34.159-12.847-53.153-10.626c-21.228,2.48-34.281,15.613-37.941,36.007
		c-0.955,5.307-1.65,10.659-2.464,15.989c-2.05,2.648-1.541,5.775-1.64,8.792c-0.523,4.756,1.303,9.778-1.63,14.255
		c-1.049,33.057-0.631,66.111,0.028,99.168c0.864,6.497,1.013,10.838,1.599,16.246c0.231,3.595,2.004,17.842,2.159,21.445
		c3.521,21.258,10.605,39.908,34.105,46.525C653.917,278.553,670.94,278.577,686.807,271.068z M879.28,62.82
		c-3.461-25.879-15.465-44.083-42.357-46.218c-22.549-1.793-44.545-1.692-58.643,21.144c-5.226,8.464-6.735,17.657-7.675,26.91
		c-4.924,48.5-2.546,97.12-1.362,145.695c0.286,11.683,1.314,23.578,5.141,34.755c5.393,15.741,15.286,26.946,32.613,30.354
		c7.902,1.553,15.791,2.016,23.68,1.492c29.031-1.938,39.844-11.576,46.505-39.257c7.239-30.11,4.599-61.309,5.652-92.582
		C881.483,118.019,882.957,90.312,879.28,62.82z M520.063,212.137c0.012-5.539,0.02-11.077,0.032-16.616
		c-1.639-5.026-1.689-7.808-3.147-11.965c-0.643-4.391-1.05-8.832-1.973-13.162c-3.293-15.465-5.811-17.403-21.89-17.436
		c-4.132-0.008-8.309,0.382-12.387-0.087c-6.494-0.749-8.775,1.283-8.617,8.216c0.472,20.652,0.175,41.318,0.167,61.98
		c-0.004,18.946-0.008,18.946,18.764,18.907c18.6-0.037,22.487-3.297,25.867-21.705C518.99,217.97,518.034,214.469,520.063,212.137z
		 M472.31,120.667c0.032,2.533-1.175,5.565,3.123,6.764c15.424,4.307,29.373-3.833,32.272-19.703
		c2.811-15.383,2.16-30.946,0.806-46.425c-0.277-3.138-1.863-6.136-3.782-9.198c-6.893-11.013-17.372-6.614-26.631-7.663
		c-4.563-0.519-6.035,1.308-5.933,5.861c0.264,11.721,0.089,23.454,0.089,35.182C472.252,97.212,472.176,108.94,472.31,120.667z
		 M636.272,190.35c0.265,13.012-0.427,26.107,2.265,38.984c2.273,10.87,9.072,16.132,19.987,15.556
		c10.695-0.56,15.485-5.905,16.563-20.171c3.83-50.815,1.87-101.694,1.097-152.55c-0.102-6.601-1.626-13.218-2.899-19.75
		c-1.422-7.328-7.433-10.047-13.69-11.212c-6.531-1.216-12.298,0.509-16.527,6.722c-4.469,6.569-5.844,13.693-6.165,21.285
		c-1.045,24.468-1.817,48.942-0.708,73.439C636.194,158.552,635.947,174.457,636.272,190.35z M844.918,95.728
		c0-7.417,0.004-14.837,0-22.254c-0.167-3.394,0.554-6.93-1.647-9.986c-0.373-2.189-0.646-4.401-1.135-6.563
		c-2.851-12.6-6.896-16.268-17.481-15.95c-10.353,0.312-14.574,3.596-16.314,15.923c-2.286,16.208-5.522,32.316-5.193,48.887
		c0.5,25.097,0.265,50.207,0.269,75.31c0.004,16.483,2.871,32.69,4.997,48.935c1.591,12.181,5.177,14.7,15.75,14.86
		c11.721,0.183,14.908-2.214,17.499-14.118c1.004-4.611,1.117-9.416,1.638-14.134c2.11-3.035,1.379-6.528,1.644-9.879
		c0.406-5.156-1.294-10.532,1.565-15.438c-0.004-19.036-0.004-38.071-0.008-57.106C843.043,121.503,845.82,108.54,844.918,95.728z"
		/>
	<path fill-rule="evenodd" clip-rule="evenodd" fill="#004D87" d="M1789.833,19.654c25.046,0.282,50.178-2.501,75.101,1.987
		c12.823,2.31,20.756,9.809,26.393,21.79c7.706,16.381,8.201,33.619,8.526,50.81c0.777,40.985,1.64,81.983-0.976,122.974
		c-0.887,13.905-5.135,26.603-11.414,38.454c-7.283,13.75-21.058,17.441-35.456,17.742c-20.654,0.431-41.324,0.076-61.986,0.059
		c-1.871-2.209-1.114-4.867-1.118-7.326c-0.037-79.689-0.037-159.382-0.004-239.071
		C1788.898,24.585,1788.284,21.967,1789.833,19.654z M1866.156,177.071c0.032-31.411,0.043-41.636,0.011-73.043
		c0-2.846-0.939-12.405-1.599-15.685c-0.443-6.645-0.558-13.333-1.396-19.926c-2.859-22.49-4.936-23.755-27.444-24.186
		c-7.938-0.153-8.426,3.044-8.406,9.377c0.196,58.416,0.062,116.837,0.159,175.255c0.028,14.918-2.302,12.984,13.07,13.076
		c16.692,0.1,20.03-2.814,21.967-19.147c0.935-7.865,1.395-15.788,2.065-23.686C1865.4,194.855,1866.151,179.916,1866.156,177.071z"
		/>
	<path fill-rule="evenodd" clip-rule="evenodd" fill="#004D86" d="M290.173,276.897c-4.585-0.524-9.171-1.474-13.75,0.033
		c-6.409,0.973-11.869,4.456-17.728,6.843c-15.685,6.389-31.595,5.764-47.589,1.93c-7.416-1.777-14.392-4.873-20.128-10.093
		c-1.963-1.785-3.375-0.316-4.167,0.651c-9.146,11.188-21.6,12.648-34.751,12.014c-13.311-0.641-26.214-3.854-39.193-6.526
		c-16.31-3.358-32.642-5.284-48.69,0.815c-7.042,2.676-13.994,5.972-17.677,13.344c-1.004,2.011-2.74,3.074-4.877,2.509
		c-2.326-0.614-2.616-2.845-2.609-4.845c0.029-8.386,3.57-15.487,8.335-22.106c0.788-1.095,1.62-2.156,2.744-3.649
		c-6.503-1.046-12.894-0.961-18.906-3.031c-12.617-4.344-21.803-12.074-25.37-25.429c-0.678-0.914-0.798-2.117-1.552-2.991
		c0.042-1.363-0.43-3.14,0.253-3.985c0.875-1.086,1.333-2.968,3.023-3.123c1.723-0.158,2.3,1.403,2.661,2.681
		c2.738,9.686,9.639,14.04,19.125,15.376c9.748,1.374,19.401,1.345,29.961-1.369c-10.834-1.188-19.993-4.311-28.391-9.709
		c-3.223-2.072-6.116-4.595-8.353-7.493c-6.521-8.452-3.374-18.578,6.945-23.396c0.834,2.513-0.396,4.816-0.87,7.096
		c-1.406,6.772,0.51,9.571,8.14,12.293c12.963,4.622,24.786,2.062,35.785-5.803c2.202-1.574,4.756-2.658,7.203-3.999
		c0.059-1.047-0.889-1.38-1.614-1.791c-7.857-4.452-14.44-10.177-19.53-17.782c-7.554-11.286-11.451-23.486-8.56-36.875
		c2.881-13.34,9.428-24.649,20.37-33.536c13.151-10.68,29.032-14.214,44.609-18.647c13.739-3.91,27.481-7.619,40.082-14.684
		c10.081-5.65,17.952-13.354,19.954-24.834c1.032-5.92-1.963-12.13-6.734-16.481c-12.333-11.244-26.858-12.727-42.641-9.709
		c-16.199,3.096-32.569,5.539-48.987,1.451c-10.142-2.526-19.477-6.57-25.684-15.763c-1.222-1.809-2.06-3.656-1.088-5.308
		c1.075-1.827,3.148-0.604,4.542,0.061c10.343,4.938,20.631,2.846,30.657-0.607c16.05-5.529,32.35-7.147,49.101-4.672
		c1.404,1.251,3.121,0.381,4.665,0.689c1.047-0.193,2.037-0.176,2.778,0.755c9.66,3.453,18.847,7.624,26.51,14.805
		c2.658,2.491,4.964,5.388,6.847,8.165c6.833,10.08,11.875,21.2,7.547,33.661c-3.116,8.974-9.517,15.861-17.555,21.044
		c-0.9,0.581-1.838,1.031-2.323,2.046c-11.447,9.535-25.7,12.261-39.457,16.056c-15.483,4.271-31.07,8.242-44.538,17.492
		c-14.55,9.995-20.439,23.961-18.759,41.479c1.215,12.666,7.161,22.349,17.923,30.679c-0.198-7.082,2.516-12.143,7.067-16.288
		c0.902-0.821,1.741-1.714,2.731-2.437c4.737-3.455,7.548-2.786,10.22,2.394c1.639,3.179,1.588,6.816,2.905,10.59
		c3.678-4.367,7.278-8.481,12.375-10.779c3.046-1.372,6.065-2.33,8.809,0.619c1.713,3.867-1.421,7.847,0.277,11.726
		c-0.035-3.845,0.216-7.68,0.12-11.524c0.133-5.842,1.682-11.258,6.029-15.29c6.831-6.335,9.978-13.842,9.249-23.209
		c-0.623-8.003,4.008-14.286,8.22-20.353c6.667-9.603,16.076-16.518,25.087-23.758c0.603-0.484,1.438-0.457,2.158-0.697
		c6.283-3.643,11.796-8.36,17.562-12.714c8.062-6.085,16.052-12.281,23.833-18.72c2.975-2.463,5.925-5.367,7.787-8.688
		c8.28-14.765,21.075-23.265,36.871-28.097c11.74-3.59,23.688-6.855,33.515-14.761c3.509-2.822,6.68-6.062,10.034-9.079
		c2.928-2.633,6.242-4.584,9.785-6.379c8.958-4.538,17.691,0.838,21.656,9.129c2.851,5.96,5.247,12.125,6.712,18.698
		c2.396,10.743,7.244,20.658,11.416,30.805c2.003,4.875,3.493,10.089,3.819,15.484c0.495,8.187-4.464,13.351-10.389,17.549
		c-4.536,3.215-9.733,5.426-14.851,7.737c-4.665,2.107-7.861,6.067-8.539,11.512c-0.472,3.786-0.506,7.689-1.486,11.338
		c-3.589,13.354-8.396,26.157-15.813,38.035c-4.476,7.168-9.259,14.03-14.341,20.746c-5.474,7.236-11.954,13.499-18.288,19.938
		c-4.861,4.942-9.405,10.148-14.973,14.385c-3.2,2.435-6.844,3.9-10.28,5.812c-2.07,1.15-4.267,2.301-3.853,5.004
		c0.462,3.013,3.151,3.438,5.628,3.659c3.852,0.345,6.989-1.206,10.062-3.499c5.181-3.863,9.827-8.016,11.514-14.557
		c0.679-2.63,1.836-4.987,3.238-7.312c2.458-4.074,5.309-4.303,7.808-0.183c4.79,7.893,4.97,16.069,0.917,24.328
		c-0.757,1.541-1.896,2.74,0.863,3.638c8.373,2.723,16.561,6.08,25.037,8.402c5.588,1.532,11.464,1.679,16.185-3.202
		c2.215-2.29,2.194-4.296,0.409-6.654c-0.813-1.075-1.694-2.156-2.218-3.375c-0.617-1.435-2.186-3.069-0.576-4.578
		c1.795-1.684,3.87-0.614,5.421,0.542c6.632,4.948,8.709,11.692,4.651,19.617c0.583,2.788,2.451,1.212,3.877,1.141
		c13.577-1.545,26.63-13.101,23.692-27.08c-1.271-6.049-4.225-11.635-7.803-16.634c-6.025-8.42-13.048-16.073-19.078-24.533
		c-4.744-6.657-8.237-13.795-9.128-21.724c-1.304-11.611,2.468-21.956,12.683-28.149c10.264-6.223,21.184-5.142,31.847,0.315
		c7.287,3.729,11.653,10.342,16.845,16.102c4.313,4.785,9.238,7.62,15.649,8.302c4.344,0.463,4.615,1.347,1.81,4.565
		c-12.303,14.123-25.891,14.285-41.24,5.682c-4.678-2.622-8.088-6.74-12.101-10.148c-0.697-0.592-1.233-1.403-1.986-1.895
		c-3.178-2.073-6.528-4.712-10.407-2.321c-3.906,2.407-4.226,6.543-3.188,10.63c2.152,8.467,7.038,15.435,12.113,22.406
		c6.623,9.097,14.61,17.295,19.663,27.425c4.321,8.66,5.385,18.072,0.789,26.931c-4.341,8.364-12.398,12.483-21.101,15.181
		c-7.729,2.396-15.716,3.277-24.083,3.215c8.628,7.522,28.211,11.062,35.226,3.514c0.478-0.514,1.313-0.686,1.96-1.057
		c2.276-1.307,4.84-4.233,7.145-1.226c2.261,2.95,1.214,6.609-0.776,9.766c-6.689,10.602-17.147,14.26-28.817,15.766
		c-13.924,1.798-27.305-0.05-40.121-5.83 M221.235,247.36c0.931-4.948,2.449-9.348,6.236-13.234
		c7.714-7.92,17.812-12.546,25.928-19.803c6.826-6.104,11.521-13.193,9.613-23.055c-2.478-12.812-11.22-21.036-22.037-25.938
		c-30.442-13.797-61.571-15.6-92.228-0.538c-10.308,5.063-17.81,13.174-16.721,26.181c0.305,3.644,0.368,7.312,0.437,10.972
		c0.065,3.461-0.747,6.869-3.011,9.417c-8.517,9.584-18.981,14.021-31.807,10.593c-9.555-2.554-17.766-0.423-25.802,5.166
		c-7.713,5.364-16.569,7.509-26.048,5.616c-3.991-0.797-7.952-1.75-11.926-2.632c11.403,8.349,24.234,12.094,38.083,10.175
		c11.736-1.627,22.76-6.59,34.415-8.938c10.403-2.096,20.814-3.575,31.302-1.166c2.387,0.548,6.8,0.531,6.377,3.764
		c-0.392,2.997-4.455,1.636-6.78,1.45c-20.347-1.617-39.705,2.462-58.646,9.503c-12.779,4.75-25.879,8.028-39.69,7.638
		c-6.06-0.171-11.959-1.577-19.085-2.479c3.686,3.994,7.226,6.139,11.288,7.402c10.049,3.129,20.197,2.464,30.338,0.519
		c13.503-2.59,26.993-4.911,40.864-3.342c8.224,0.931,16.047,3.578,24.145,5.021c8.523,1.519,16.641,0.484,24.603-2.778
		c7.104-2.91,9.292-9.421,11.901-15.676c0.281-0.674,0.52-1.645,1.4-1.494c1.167,0.199,1.766,1.25,1.901,2.342
		c0.596,4.795-0.417,9.409-3.828,12.736c-9.167,8.949-20.343,12.396-33.006,10.452c-5.563-0.853-11.087-2.063-16.555-3.415
		c-20.2-4.994-39.364-3.514-56.337,9.584c-4.204,3.244-8.667,7.053-8.972,14.152c11.117-11.408,24.414-14.769,39.124-14.166
		c13.632,0.56,26.813,3.832,40.108,6.439c12.141,2.383,24.299,4.79,36.744,2.692c6.802-1.146,13.173-2.764,17.181-9.627
		c2.494-4.269,1.117-8.151,1.065-12.248c-0.623-0.95-0.77-2.146-1.555-3.012c-1.236-5.253,0.691-9.492,4.385-13.041
		c1.852-1.78,4.732-3.011,6.508-1.174c2.084,2.156-1.07,3.609-2.357,5.009c-3.137,3.408-4.298,9.037-2.135,12.906
		c4.749,8.494,11.841,14.725,20.77,18.087c18.624,7.014,37.304,5.533,55.123-2.706c13.175-6.091,25.801-6.928,39.109-0.899
		c15.293,6.927,30.797,6.05,46.203,0.027c0.438-1.729-1.248-0.888-1.766-1.461c-1.964-0.218-3.951-0.314-5.889-0.673
		c-10.969-2.031-21.077-6.691-31.504-10.382c-13.792-4.882-27.613-7.273-41.817-1.281c-5.841,2.465-11.792,4.722-18.057,6.093
		c-9.744,2.134-26.527-2.999-27.566-14.066C220.201,250.507,220.221,248.937,221.235,247.36z M149.838,152.13
		c0.159,1.829,0.544,2.81,2.82,1.772c2.885-1.314,5.926-2.511,9.024-3.094c32.147-6.054,63.431-5.224,91.779,13.596
		c8.898,5.908,16.013,13.804,17.631,25.186c0.264,1.856,0.741,3.683,1.248,6.143c9.141-9.524,17.203-18.971,23.851-29.563
		c3.444-5.488,6.388-11.188,8.889-17.221c4.573-11.028,8.853-22.053,9.665-34.102c0.088-1.297,0.567-3.045-1.002-3.697
		c-1.583-0.66-2.928,0.451-3.963,1.604c-2.312,2.576-4.494,5.273-6.843,7.814c-1.135,1.227-2.623,2.561-4.364,1.375
		c-1.906-1.299-0.717-3.356,0.023-4.543c3.384-5.424,7.704-9.686,13.812-12.418c8.31-3.719,17.274-5.855,25.126-10.646
		c10.549-6.437,13.427-10.829,10.251-22.65c-0.91-3.388-2.875-6.261-4.029-9.472c-3.219-8.95-6.42-17.925-9.08-27.051
		c-1.757-6.029-4.749-11.397-7.694-16.772c-3.876-7.075-10.716-8.681-16.354-4.155c-2.442,1.961-4.739,4.256-6.588,6.777
		c-8.113,11.061-18.945,19.101-30.292,26.218c-12.677,7.951-25.988,14.917-39.193,21.994c-18.113,9.708-33.997,22.467-49.485,35.741
		c-7.785,6.671-15.903,12.979-22.966,20.498c-5.743,6.112-11.18,12.274-12.331,21.021
		C148.729,148.378,148.673,150.262,149.838,152.13z M115.24,25.527c-0.687-0.566-1.51-1.03-2.031-1.721
		c-0.942-1.25-1.24-2.849-3.648-2.365c-2.529,0.507-1.53,2.126-1.729,3.424c-0.242,1.576-1.171,2.496-2.704,2.629
		c-1.502,0.13-3.568,0.397-4.06-1.238c-0.95-3.166-2.866-2.189-4.839-1.696c-2.502,0.625-5.019,1.199-7.51,1.863
		c-6.898,1.842-14.03,2.056-21.676,2.784c2.437,3.354,5.682,4.563,8.673,5.355c14.969,3.958,29.993,4.478,44.995-0.17
		c8.097-2.509,16.183-5.582,24.905-2.755c0.53,0.172,1.305,0.151,1.759-0.123c0.849-0.511,2.249-0.117,2.562-1.534
		c0.311-1.408-0.793-1.654-1.631-2.306c-7.005-5.443-15.432-5.829-23.699-6.979c-2.953-0.411-4.859,0.249-5.964,3.011
		 M359.831,141.076c-0.902-2.223,1.001-3.524,1.9-5.134c-7.463-3.28-18.633-2.041-24.906,2.719
		c-1.083,0.822-2.219,1.831-2.014,3.369c0.236,1.774,1.784,1.817,3.156,1.969c7.255,0.797,13.767,3.019,19.122,8.416
		c3.249,3.277,7.143,5.94,10.874,8.709c8.215,6.098,17.18,7.65,23.622,0.001c-4.656-2.81-8.895-6.107-12.381-10.355
		c-0.695-0.848-1.225-3.107-2.986-1.271c-2.567,2.678-4.283,1.889-6.637,0.199c-0.199-0.219-0.162-0.206-0.356-0.435
		c-0.103-0.121,0,0-0.234-0.531c-0.324-0.735-0.203-0.359-0.219-0.641c-0.009-0.167,0.029-0.577,0.015-0.828
		c-0.021-0.392,0.007-0.765,0.089-0.881c0.318-0.807,1.068-1.228,1.22-1.279c3.534-1.208,2.225-2.178,0.001-3.389
		c-0.896-0.488-1.567-1.39-2.375-2.136c-1.874,3.984-2.467,4.235-7.005,3.068 M301.926,250.401
		c-1.958-0.811-3.955-1.541-5.868-2.448c-10.424-4.941-21.018-5.522-31.956-1.733c-11.333,3.925-22.718,7.004-33.233-2.29
		c-4.113,11.316,4.644,15.161,12.811,15.378c4.788,0.126,9.376-1.203,13.681-3.196c13.296-6.154,26.783-10.326,41.448-5.001
		c0.41,0.149,0.911,0.05,1.368,0.066C301.017,251.498,301.947,252.023,301.926,250.401z M269.562,229.591
		c-8.103,8.473-15.048,13.913-28.429,9.168c-1.462-0.519-3.658-1.622-4.385,0.445c-0.801,2.277,1.217,3.174,3.238,3.948
		c10.227,3.922,19.532,1.263,28.045-4.395c6.172-4.101,10.796-9.604,8.884-19.021C275.152,224.266,272.187,226.849,269.562,229.591z
		 M108.052,212.888c-8.66-1.605-14.732-6.095-16.769-15.089c-0.41-1.808-0.032-4.985-1.93-4.936
		c-2.444,0.065-2.729,3.245-3.214,5.433c-0.222,0.995,0.008,2.096,0.055,3.146c0.319,7.047,11.186,16.488,18.505,16.176
		c3.317-0.143,6.703-0.295,8.954-3.893C111.583,213.419,109.806,213.213,108.052,212.888z M267.804,41.451
		c-13.078,2.179-24.138,7.868-32.192,18.683C247.152,55.222,257.949,49.141,267.804,41.451z M115.015,192.458
		c-3.223-0.398-4.927,2.196-6.565,4.018c-2.048,2.277-3.04,5.798-0.931,8.395c2.117,2.607,5.709,2.403,8.871,1.842
		c1.829-0.325,2.197-2.166,0.934-3.039c-3.347-2.312-2.763-5.294-2.134-8.433C115.795,194.271,115.84,193.337,115.015,192.458z
		 M121.653,26.414c-0.594-1.284-2.745-0.968-2.843-2.764c-1.134,0.607-2.269,1.214-3.403,1.82c-0.939,1.772-1.955,3.855,0.038,5.242
		c1.954,1.358,4.418,2.096,6.274-0.574C122.618,28.88,122.639,27.638,121.653,26.414z M359.623,141.285
		c-1.014-0.071-2.033-0.102-3.042-0.22c-1.958-0.228-3.187,0.638-3.845,2.437c-0.643,1.753,0.188,3.108,1.56,3.841
		c1.494,0.798,3.243,0.756,4.711-0.35c1.369-1.032,1.18-2.691,1.5-4.138C360.53,142.152,360.273,141.607,359.623,141.285z
		 M369.103,148.638c-1.189,0.053-2.379,0.112-3.568,0.156c-1.832,0.067-3.277,0.7-3.666,2.684c-0.283,1.442-0.005,2.873,1.384,3.537
		c1.669,0.798,3.543,1.136,5.118-0.251c1.634-1.439,0.86-3.364,0.764-5.132C369.125,149.301,369.114,148.97,369.103,148.638z
		 M149.838,152.13c-0.022-1.882-0.044-3.764-0.065-5.646C147.19,148.396,147.241,150.277,149.838,152.13z M350.035,272.5
		c-1.331-0.791-2.646-0.223-3.941-0.119c0.588,0.487,1.177,0.975,1.766,1.461C348.688,273.614,349.619,273.552,350.035,272.5z
		 M246.903,200.504c1.94-2.819,2.157-5.96,0.664-8.487c-1.261-2.137-3.663-3.838-6.916-3.386c-3.542,0.493-4.817,2.79-5.656,5.716
		c-0.292,1.021-0.468,2.077-0.762,3.1c-0.972,3.39-6.39,7.297-9.771,6.791c-3.277-0.488-5.076-2.608-6.194-5.783
		c-1.571-4.464-5.432-6.564-8.25-5.001c-4.378,2.431-5.143,8.739-2.148,12.921c4.726,6.596,11.772,6.785,18.346,7.597
		C235.624,213.859,239.557,211.18,246.903,200.504z M170.706,168.925c0.236-2.779-1.937-3.618-4.166-3.804
		c-2.123-0.176-3.534,1.112-3.712,3.204c-0.207,2.417,1.295,3.562,3.119,3.775C168.622,172.084,170.502,171.315,170.706,168.925z
		 M173.797,181.378c-0.742-1.336-1.931-2.012-3.388-1.744c-1.435,0.262-3.134,0.377-3.843,1.959
		c-0.581,1.297-0.614,2.816,0.594,3.767c1.293,1.018,2.846,1.672,4.599,1.053c1.057-0.373,1.863-0.999,2.178-2.128
		C174.518,183.285,174.501,182.314,173.797,181.378z M205.375,160.515c-1.792-0.12-3.221,0.999-3.249,3.07
		c-0.03,2.343,1.19,3.892,3.541,3.849c1.973-0.037,4.083-0.483,3.964-3.17C209.748,161.145,207.451,160.653,205.375,160.515z
		 M324.212,41.982c-0.399-1.115-0.528-2.708-1.985-2.7c-1.525,0.008-1.5,1.633-1.81,2.761c-1.752,6.405-3.087,12.872-3.705,19.513
		c-0.55,5.916-1.206,12.102-3.913,17.287c-2.542,4.87-2.704,10.135-4.501,15.053c-0.739,2.021,0.458,3.123,2.847,2.369
		c1.646-0.519,2.423-1.632,3.058-3.071c6.652-15.098,9.402-31.147,11.584-47.337C324.773,44.764,325.256,43.063,324.212,41.982z
		 M202.906,114.159c-0.246-2.579-2.522-3.15-4.339-2.99c-1.89,0.166-4.638,0.579-4.708,3.201c-0.081,2.999,2.966,2.784,4.745,3.786
		C200.671,117.287,203.19,117.129,202.906,114.159z M261.764,76.082c0.081,2.538,2.083,3.263,4.128,3.316
		c2.367,0.061,4.266-0.972,4.067-3.735c-0.168-2.331-1.67-3.451-4.39-3.344C263.617,72.547,261.677,73.345,261.764,76.082z
		 M207.727,130.838c-2.436,0.054-4.305,1.07-4.332,3.665c-0.022,2.297,1.404,3.627,3.874,3.424c2.436-0.2,4.01-1.312,4.096-4.231
		C211.229,131.652,209.869,130.791,207.727,130.838z M223.715,92.775c0.081,2.817,1.877,4.126,4.477,4.06
		c2.151-0.054,3.25-1.54,3.14-3.675c-0.134-2.608-1.721-3.716-4.22-3.69C224.859,89.428,223.652,90.562,223.715,92.775z
		 M110.419,31.864c-0.107-2.329-2.243-3.251-4.07-3.296c-2-0.05-4.269,0.603-4.261,3.427c0.007,2.607,2.424,2.589,4.254,3.905
		C107.644,34.375,110.549,34.686,110.419,31.864z M94.274,28.549c-2.343-0.377-3.759,1.159-3.774,3.466
		c-0.014,2.117,1.438,3.555,3.468,3.347c1.808-0.186,4.021-0.625,4.18-3.981C98.3,29.332,96.081,28.839,94.274,28.549z
		 M379.555,158.187c-0.019-2.521-1.72-3.352-3.954-3.375c-2.403-0.025-3.778,1.216-3.685,3.608c0.087,2.21,1.584,3.119,3.671,3.107
		C377.854,161.508,379.574,160.745,379.555,158.187z"/>
</g>
</svg>
