<?xml version="1.0" standalone="no"?>
<!DOCTYPE svg PUBLIC "-//W3C//DTD SVG 20010904//EN"
 "http://www.w3.org/TR/2001/REC-SVG-20010904/DTD/svg10.dtd">
<svg version="1.0" xmlns="http://www.w3.org/2000/svg"
 width="535.000000pt" height="467.000000pt" viewBox="0 0 535.000000 467.000000"
 preserveAspectRatio="xMidYMid meet">

<g transform="translate(0.000000,467.000000) scale(0.100000,-0.100000)"
fill="#000000" stroke="none">
<path d="M3960 4070 c-59 -17 -101 -49 -205 -154 -115 -117 -196 -170 -339
-224 -34 -12 -92 -34 -129 -48 -169 -63 -302 -176 -375 -319 -54 -107 -134
-188 -501 -509 -176 -153 -230 -206 -300 -291 -131 -158 -169 -249 -180 -426
-4 -69 -12 -132 -16 -140 -4 -8 -30 -44 -56 -80 -27 -36 -61 -93 -76 -125 -27
-56 -28 -66 -26 -186 1 -76 -2 -128 -7 -128 -5 0 -17 11 -26 25 -13 19 -15 36
-9 68 15 86 12 112 -13 115 -29 4 -102 -38 -138 -80 -15 -18 -36 -53 -47 -77
-10 -24 -22 -39 -27 -35 -12 13 -28 71 -41 146 -6 37 -16 74 -23 84 -12 15
-15 15 -43 0 -76 -39 -140 -163 -128 -249 l6 -49 -23 16 c-51 36 -120 113
-152 170 -60 109 -79 178 -84 311 -5 145 9 211 69 332 69 139 218 264 399 336
25 10 59 24 75 32 17 7 50 19 75 25 95 25 348 114 417 146 175 81 305 204 365
344 28 66 32 86 32 170 0 82 -4 107 -32 182 -121 334 -425 512 -807 470 -76
-8 -138 -23 -223 -53 -151 -53 -183 -60 -262 -61 -47 -1 -80 6 -114 21 -61 26
-76 26 -76 0 0 -87 150 -213 310 -260 59 -18 331 -18 430 0 41 7 102 20 135
28 228 59 462 -46 536 -243 25 -66 24 -116 -6 -197 -68 -189 -243 -311 -619
-432 -77 -25 -144 -45 -150 -45 -6 -1 -29 -9 -51 -20 -22 -11 -47 -19 -55 -20
-8 0 -55 -20 -105 -44 -195 -96 -323 -245 -396 -461 -21 -62 -24 -88 -24 -225
0 -136 3 -163 24 -225 47 -142 133 -265 241 -347 62 -47 86 -78 61 -78 -4 0
-52 -29 -105 -65 -53 -35 -113 -69 -134 -75 -84 -23 -244 -1 -302 41 -51 39
-59 83 -34 209 l7 35 -43 -40 c-23 -22 -48 -52 -56 -67 -19 -37 -18 -131 2
-171 61 -117 213 -221 365 -248 38 -7 69 -16 69 -20 0 -33 -321 -37 -412 -4
-63 22 -111 70 -132 130 -10 28 -22 60 -27 73 -22 57 -54 -5 -44 -86 7 -57 56
-160 106 -221 41 -51 119 -109 178 -132 27 -10 92 -24 143 -30 51 -6 94 -12
96 -14 2 -2 -12 -24 -31 -49 -68 -88 -125 -284 -98 -335 19 -35 47 -25 80 28
29 48 107 118 160 145 99 50 153 61 306 61 91 0 166 -5 190 -12 35 -11 110
-29 331 -78 114 -26 274 -37 349 -25 116 18 173 51 253 144 l33 38 27 -24 c73
-68 189 -126 297 -149 84 -18 285 -16 365 4 36 9 98 34 139 56 93 51 201 91
248 91 42 0 160 -34 212 -60 93 -49 259 -72 380 -54 144 22 216 56 288 137 82
94 87 235 5 193 -15 -8 -35 -22 -43 -32 -43 -53 -162 -68 -268 -35 -62 19
-151 66 -151 80 0 4 49 12 109 19 354 37 515 250 415 551 -22 67 -53 122 -145
261 -156 235 -239 403 -239 481 0 43 30 97 62 110 48 20 84 -4 211 -140 69
-73 190 -131 276 -131 37 0 75 6 94 16 55 28 126 87 154 127 30 43 25 52 -37
63 -81 15 -119 46 -213 175 -98 134 -180 188 -296 197 -103 7 -171 -17 -236
-81 -43 -44 -56 -66 -78 -132 -59 -176 -19 -363 117 -560 23 -33 72 -103 108
-155 108 -157 159 -276 160 -374 1 -121 -75 -236 -191 -288 -54 -25 -161 -49
-161 -37 0 2 11 26 25 53 30 59 31 75 8 140 -20 55 -65 106 -93 106 -32 0 -33
-19 -6 -72 44 -84 29 -141 -42 -169 -39 -15 -129 -10 -179 10 -158 63 -268
112 -268 118 0 5 11 39 24 76 29 84 26 167 -9 245 -23 54 -48 76 -73 66 -7 -2
-29 -49 -47 -102 -57 -167 -155 -272 -255 -272 -37 0 -85 35 -85 63 0 18 32
47 101 90 74 47 122 95 265 267 127 154 202 256 279 384 48 79 136 260 150
306 4 14 11 30 15 35 19 25 80 270 90 360 12 114 42 191 86 222 16 11 53 32
82 47 29 15 62 34 74 44 119 95 152 151 152 252 -1 69 -17 130 -105 390 -26
80 -58 186 -69 235 -30 127 -58 212 -93 273 -43 77 -117 120 -177 102z m43
-104 c43 -18 61 -39 101 -122 32 -67 56 -137 98 -294 11 -41 44 -147 73 -235
29 -88 56 -181 60 -206 20 -135 -66 -224 -337 -344 -145 -64 -212 -125 -238
-215 -18 -61 34 -45 75 23 34 58 70 91 91 83 28 -11 13 -158 -35 -333 -46
-170 -72 -237 -145 -378 -82 -157 -264 -415 -293 -415 -9 0 -13 16 -13 45 0
194 -214 428 -472 516 -245 84 -589 92 -798 18 -47 -17 -93 -33 -102 -36 -26
-8 -34 72 -15 148 31 124 91 203 352 465 132 132 293 284 358 338 100 84 295
221 394 277 72 42 273 175 326 217 138 110 233 203 312 308 82 109 111 137
150 147 11 2 21 5 23 6 1 0 17 -5 35 -13z m-2100 -133 c119 -35 177 -82 146
-119 -10 -12 -24 -13 -68 -7 -83 11 -112 7 -229 -33 -217 -74 -514 -58 -622
33 -17 13 -30 28 -30 32 0 4 46 12 103 19 87 10 171 29 262 57 15 4 23 0 30
-17 7 -17 18 -23 40 -23 27 0 31 4 35 35 4 29 10 36 33 38 19 2 27 -1 27 -12
0 -8 9 -20 21 -26 16 -9 25 -8 40 6 10 9 19 24 19 32 0 12 12 13 70 8 39 -4
94 -14 123 -23z m1537 -238 c0 -4 -84 -71 -180 -143 -44 -33 -228 -142 -239
-142 -33 0 94 142 169 190 70 45 250 113 250 95z m1013 -1256 c40 -11 47 -23
21 -37 -10 -6 -14 -19 -12 -38 3 -25 7 -29 33 -29 23 0 31 5 33 23 4 29 13 28
45 -6 33 -34 33 -39 6 -61 -19 -15 -20 -20 -8 -39 20 -31 39 -35 63 -13 l22
20 42 -52 c23 -29 60 -66 82 -83 22 -16 40 -34 40 -41 0 -7 -16 -24 -36 -40
-29 -22 -47 -27 -89 -27 -66 0 -103 23 -243 153 -118 110 -133 119 -209 131
-90 15 -105 41 -50 91 56 51 171 73 260 48z m-1652 -289 c248 -51 432 -175
517 -349 33 -69 36 -84 37 -161 0 -76 -3 -92 -32 -151 -36 -73 -105 -144 -240
-247 -153 -116 -207 -200 -208 -322 0 -67 3 -80 29 -118 35 -52 92 -87 165
-103 75 -16 152 1 282 62 76 36 125 52 175 58 62 7 176 0 229 -15 21 -6 262
-104 330 -134 75 -33 197 -62 242 -57 91 10 10 -35 -124 -69 -149 -37 -249
-30 -393 30 -104 44 -203 75 -234 76 -29 0 -171 -44 -191 -60 -24 -18 -180
-80 -233 -91 -86 -20 -285 -17 -354 4 -178 54 -338 221 -338 352 0 50 16 89
49 119 47 43 -1 66 -52 25 -44 -33 -52 -83 -38 -208 11 -87 11 -116 1 -147
-17 -52 -62 -98 -124 -126 -46 -21 -65 -23 -201 -23 -106 0 -172 5 -225 18
-41 9 -145 33 -230 52 -261 60 -422 64 -548 14 -66 -26 -101 -50 -157 -108
-22 -22 -43 -41 -47 -41 -15 0 -8 44 13 87 48 99 189 203 337 250 116 36 232
30 427 -22 242 -65 377 -47 489 63 60 58 76 90 82 156 8 88 -26 103 -40 17 -7
-47 -62 -129 -105 -158 -54 -36 -137 -57 -221 -55 -73 1 -100 7 -265 52 -129
35 -355 28 -506 -15 -26 -7 -89 -19 -141 -25 -110 -14 -218 -2 -283 31 -47 24
-105 77 -105 96 0 17 3 16 48 -3 46 -20 256 -30 327 -16 86 17 190 50 312 98
252 100 402 130 598 121 61 -3 116 -3 123 0 22 8 13 22 -30 44 -56 29 -205 36
-303 16 -93 -20 -223 -57 -373 -106 -67 -23 -142 -41 -166 -41 -66 0 -241 47
-300 80 -29 17 -63 42 -77 56 l-24 27 25 -6 c14 -3 50 -13 80 -22 66 -19 170
-22 226 -6 22 6 78 36 124 66 134 90 173 100 287 70 133 -35 225 -10 321 86
71 71 82 110 80 284 -2 125 0 146 21 198 62 156 285 288 540 317 105 12 277 3
392 -20z m-1139 -535 c-2 -38 1 -62 11 -73 25 -30 27 -40 11 -56 -31 -31 -116
-8 -127 34 -9 34 13 92 49 128 46 46 60 39 56 -33z m-282 30 c0 -36 34 -120
65 -161 30 -39 83 -69 140 -79 63 -12 69 -18 42 -43 -33 -32 -88 -38 -140 -18
-121 48 -201 202 -152 296 19 37 45 40 45 5z m2140 -392 c0 -101 -98 -217
-222 -265 -106 -40 -258 -9 -258 54 0 27 25 32 70 14 56 -22 125 -20 177 5 48
23 135 114 185 194 18 29 36 51 40 48 5 -2 8 -25 8 -50z m-475 -309 c59 -39
189 -36 285 7 25 12 77 27 116 34 106 18 177 5 304 -57 58 -28 100 -53 93 -55
-6 -2 -50 5 -98 16 -185 44 -208 42 -405 -46 -105 -47 -137 -57 -198 -61 -65
-4 -76 -2 -112 22 -59 39 -74 67 -67 127 8 64 14 72 37 49 10 -10 30 -26 45
-36z"/>
<path d="M4011 3582 c-6 -10 -15 -61 -21 -113 -24 -205 -33 -256 -70 -392 -51
-186 -58 -227 -37 -227 27 0 47 42 88 187 66 229 100 523 65 552 -12 10 -17 8
-25 -7z"/>
<path d="M3345 3140 c-17 -19 -17 -21 0 -40 10 -11 26 -20 36 -20 18 0 49 25
49 40 0 15 -31 40 -49 40 -10 0 -26 -9 -36 -20z"/>
<path d="M2914 2916 c-3 -8 -4 -25 -2 -38 2 -18 9 -23 33 -23 24 0 31 5 33 23
2 13 -2 30 -8 38 -16 18 -49 18 -56 0z"/>
<path d="M2575 2630 c-4 -6 -4 -22 -1 -36 6 -21 12 -25 39 -22 28 3 32 7 32
33 0 26 -4 30 -32 33 -17 2 -34 -2 -38 -8z"/>
<path d="M2682 2368 c-17 -17 -15 -43 3 -58 18 -15 62 0 71 25 14 35 -46 61
-74 33z"/>
<path d="M1667 3784 c-15 -15 -7 -63 12 -69 33 -10 52 5 49 39 -2 25 -8 32
-28 34 -14 2 -29 0 -33 -4z"/>
<path d="M1384 3726 c-12 -31 0 -51 31 -51 27 0 30 3 30 30 0 25 -4 30 -28 33
-17 2 -29 -2 -33 -12z"/>
<path d="M1524 3726 c-12 -31 1 -51 32 -54 36 -4 50 18 34 49 -13 22 -58 26
-66 5z"/>
<path d="M4387 2244 c-12 -12 -8 -51 8 -64 8 -6 23 -9 35 -5 17 5 20 13 18 38
-2 26 -8 33 -28 35 -14 2 -29 0 -33 -4z"/>
<path d="M4490 2135 c-26 -32 13 -81 48 -59 34 22 22 74 -18 74 -10 0 -23 -7
-30 -15z"/>
<path d="M4606 2048 c-21 -30 -4 -60 32 -56 34 4 44 45 16 65 -24 18 -30 17
-48 -9z"/>
<path d="M2665 1976 c-17 -12 -18 -18 -7 -40 12 -26 27 -31 56 -20 22 9 20 51
-3 64 -25 13 -23 13 -46 -4z"/>
<path d="M2228 1923 c-43 -11 -25 -76 20 -71 19 2 28 10 30 26 3 22 -13 53
-27 51 -3 -1 -13 -3 -23 -6z"/>
<path d="M2266 1727 c-11 -8 -17 -23 -14 -38 2 -20 8 -24 38 -24 29 0 36 4 38
23 4 25 -13 52 -32 52 -7 0 -20 -6 -30 -13z"/>
<path d="M3060 1598 c-11 -12 -25 -40 -31 -63 -15 -60 -31 -86 -64 -107 -58
-35 -113 -12 -129 55 -7 31 -51 77 -72 77 -28 0 -54 -51 -54 -106 0 -45 5 -59
31 -88 37 -42 120 -76 188 -76 115 0 229 108 239 225 4 48 1 59 -18 80 -29 31
-63 32 -90 3z"/>
</g>
</svg>
